<?xml version="1.0" encoding="utf-8"?>
<!-- Generator: Adobe Illustrator 23.1.0, SVG Export Plug-In . SVG Version: 6.00 Build 0)  -->
<svg version="1.1" id="Layer_1" xmlns="http://www.w3.org/2000/svg" xmlns:xlink="http://www.w3.org/1999/xlink" x="0px" y="0px"
	 viewBox="0 0 1920 1920" style="enable-background:new 0 0 1920 1920;" xml:space="preserve">
<style type="text/css">
	.st0{fill:#231F20;stroke:#231F20;stroke-miterlimit:10;}
	.st1{clip-path:url(#SVGID_2_);}
	.st2{clip-path:url(#SVGID_4_);fill:#231F20;}
	.st3{clip-path:url(#SVGID_6_);}
	.st4{clip-path:url(#SVGID_8_);fill:#231F20;}
	.st5{clip-path:url(#SVGID_10_);}
	.st6{clip-path:url(#SVGID_12_);}
	.st7{clip-path:url(#SVGID_12_);fill:#FDBF26;}
</style>
<rect x="951.3" y="29.2" class="st0" width="13.6" height="1880.6"/>
<rect x="951.2" y="21.2" transform="matrix(4.805756e-10 -1 1 4.805756e-10 -3.399 1919.5647)" class="st0" width="13.7" height="1880.6"/>
<g>
	<g>
		<defs>
			<rect id="SVGID_1_" x="-169.5" y="1078.5" width="1273.4" height="859.6"/>
		</defs>
		<clipPath id="SVGID_2_">
			<use xlink:href="#SVGID_1_"  style="overflow:visible;"/>
		</clipPath>
		<g class="st1">
			<defs>
				<rect id="SVGID_3_" x="-169.5" y="1078.5" width="1273.4" height="859.6"/>
			</defs>
			<clipPath id="SVGID_4_">
				<use xlink:href="#SVGID_3_"  style="overflow:visible;"/>
			</clipPath>
			<path class="st2" d="M413,1137.6h107.5c6.1,3.3,8.9,8.3,7.9,15.3c-1.4,9.9-2.7,19.9-4,29.9c-1,7.8-2,15.7-3,23.9
				c2.3,0,4.1,0,5.8,0c10.7,0.1,21.3-0.1,32,0.3c6.8,0.2,11,5,11.3,11.8c0,0.9,0,1.8,0,2.7c0,21.3-0.3,42.6,0.1,63.9
				c0.2,9.9-5.7,15.6-14.7,14.9c-7.1-0.5-14.2-0.1-21.3-0.1c-1.1,0-2.2,0.2-3.3,0.3v64.3c5.5,0,10.8-0.3,16.1,0.1
				c7.5,0.5,15.1,0.7,22.4,2.2c45.6,8.9,81.9,51.9,82,98.1c0.2,114.3,0.1,228.6,0,342.8c0,19.7-16.4,35.8-36,35.8
				c-99.5,0-198.9,0-298.4,0c-14.7,0-27.6-8.7-33.2-22.4c-0.9-2.3-1.8-4.6-2.6-6.9v-357.9c0.3-0.8,0.7-1.6,0.9-2.4
				c5.2-34.1,23-59.6,52.8-76.6c15.3-8.7,31.9-12.9,49.6-12.7c5.7,0.1,11.4,0,17.3,0v-64.6c-9.1,0-17.9,0-26.8,0
				c-7.6,0-12.7-4.6-12.8-12.3c-0.2-22.9-0.2-45.9,0-68.8c0.1-7.2,4.7-11.8,12-12.2c3.7-0.2,7.4-0.2,11.1-0.2c8.5,0,17.1,0,26.1,0
				c-0.3-3-0.5-5.4-0.8-7.9c-1.9-15.1-3.7-30.2-5.9-45.2C403.9,1146.1,406.4,1140.9,413,1137.6 M305.6,1728.2v4.5c0,24,0,48,0,71.9
				c0,10.3,5,15.1,15.3,15.1c97.1,0,194.2,0,291.3,0c10.8,0,15.2-4.4,15.2-15.4c0-112.3,0-224.7,0-337c0-4.1-0.4-8.3-1-12.3
				c-5.6-36.5-38.7-65.8-75.4-66c-55.8-0.3-111.6-0.2-167.4,0c-5.7,0-11.5,0.9-17.1,2.3c-36.1,9-60.6,40.5-60.8,77.7
				c-0.1,15.2,0,30.5,0,45.7c0,1.3,0.1,2.6,0.2,4.2h5.5c56.7,0,113.4,0,170.1,0c8.7,0,17.5-0.1,26.2,0c9.6,0.1,14.4,5,14.4,14.6
				c0,60.1,0,120.2,0.1,180.3c0,8.7-5.2,14.6-14.4,14.6c-65.4-0.3-130.8-0.1-196.3-0.1H305.6z M305.8,1704h191.4v-160.3H305.9v64
				c8.8-8.6,17.1-16.6,25.3-24.6c3.7-3.6,8.1-4.8,13-3.1c4.6,1.6,7.2,5.1,7.9,9.8c0.7,4.2-1,7.7-4,10.8c-7.6,8-15.2,16.1-22.9,24.3
				c7.1,7.4,15,15.4,22.7,23.5c4.7,5,4.6,12.1,0.1,16.8c-4.6,4.8-12.1,5-17.2,0.4c-2.1-1.9-3.9-4-5.9-6
				c-6.4-6.2-12.8-12.5-19.3-18.7V1704z M546.1,1231.1H387.3v44.5h158.8V1231.1z M506.4,1300.4h-79.7v63.9h79.7V1300.4z
				 M436.3,1205.9c0.6,0.3,0.9,0.5,1.1,0.5c18.9,0.1,37.9,0.2,56.8,0c1,0,2.7-1.7,2.9-2.8c1.9-13.9,3.6-27.8,5.4-41.9h-71.9
				C432.6,1176.6,434.4,1191.2,436.3,1205.9"/>
			<path class="st2" d="M608.7,1495c0,10.8,0,21.6,0,32.4c0,7.5-4.8,12.7-11.7,12.8c-7.2,0.1-12.4-5-12.4-12.6
				c-0.1-19.4-0.2-38.7,0-58.1c0.3-21.1-16.5-36.5-33.6-37.2c-2.5-0.1-5.1-0.4-7.4-1.2c-5.3-1.8-8.5-7.8-7.4-13.2
				c1.2-6,5.7-9.9,11.7-10.1c26.4-0.9,51.7,18.2,58.7,44.5c1.3,4.9,1.9,10.2,2.1,15.3C608.9,1476.6,608.7,1485.8,608.7,1495"/>
			<path class="st2" d="M608.6,1574.8c0,3.8,0.2,7.7,0,11.5c-0.3,6.5-5.4,11.2-11.9,11.2c-6.4,0-11.9-4.6-12.1-11
				c-0.3-8-0.3-15.9,0-23.9c0.2-6.2,5.9-11.1,12.1-11.1c6.4,0,11.6,4.9,11.9,11.3C608.8,1566.9,608.7,1570.9,608.6,1574.8"/>
			<path class="st2" d="M432.5,1605.8c7.6-7.4,15.6-15.2,23.5-22.9c3.1-3,6.8-4.2,11-3.4c4.7,1,7.9,3.8,9.3,8.5
				c1.5,4.8,0.2,8.8-3.2,12.2c-7.4,7.4-15,14.7-22.5,22.1c-0.5,0.5-1,1.1-1.7,1.8c7.6,7.8,15.1,15.6,22.7,23.2
				c3.5,3.5,5.3,7.5,4.1,12.4c-2.3,9.3-13.4,12.4-20.3,5.7c-8.2-7.8-16.4-15.8-25.9-24.9c-6.8,7.3-13.9,15.2-21.3,22.9
				c-5.7,6-13.3,6.2-18.4,1.1c-5.1-5.2-4.4-12.6,1.4-18.4c7.5-7.6,14.6-15.4,22.2-23.5c-6.7-6.9-14.2-14.7-21.7-22.4
				c-5.6-5.7-6-13.2-1-18.1c5.3-5.3,12.3-4.8,18.4,1.1C416.6,1590.6,424.3,1597.9,432.5,1605.8"/>
		</g>
	</g>
</g>
<g>
	<g>
		<defs>
			<rect id="SVGID_5_" x="446.1" y="-241.4" width="2054.9" height="1387.2"/>
		</defs>
		<clipPath id="SVGID_6_">
			<use xlink:href="#SVGID_5_"  style="overflow:visible;"/>
		</clipPath>
		<g class="st3">
			<defs>
				<rect id="SVGID_7_" x="446.1" y="-241.4" width="2054.9" height="1387.2"/>
			</defs>
			<clipPath id="SVGID_8_">
				<use xlink:href="#SVGID_7_"  style="overflow:visible;"/>
			</clipPath>
			<path class="st4" d="M1142.9,422v-27.5c0.5-1.5,1.2-2.9,1.4-4.4c11.6-77,97.2-122.1,167.1-87.6c12.3,6.1,23.3,14.8,35.5,22.7
				c15.3-15.5,34.8-26.1,57.2-31.6c1.4-28.4-1.3-56-6.5-83.6c-1.8-9.6-7.4-13.1-15.3-15.8c2.6,29.5-10.4,48.4-36.8,54
				c-18,3.8-33.9-5.6-38.2-22.7c-5.3-20.9,6.4-42.7,26.8-49.4c4.4-1.5,9-2.4,13.6-3.6c-10-10.9-29.7-21.7-45.9-24.6
				c-18.7-3.4-34,2.4-45,18c-16.3,23.1-12.2,54.1,9.3,72.4c4,3.4,7.3,7.1,3.2,12.1c-4.1,5-8.4,2.4-12.6-0.8
				c-22.8-17.6-30.6-49.3-19.2-78.3c11.1-28.3,36.2-42.9,66.1-37.9c24.2,4,44,16.7,60.6,34.1c6.9,7.3,15,9.4,24.7,12.6
				c-7.9-20.5-17.5-38.2-35.9-49.9c-7.9-5-9.6-13.8-4.8-20.9c4.7-6.9,14-8.8,21.1-3c8.8,7.2,17.8,14.6,24.9,23.4
				c20.7,25.5,29.4,56,34.5,87.7c1.9,11.7,3,23.6,4.7,37.4c1.2-3.6,1.9-5.3,2.4-7c6-19.9,11.9-39.9,17.9-59.8
				c1.4-4.5,1.9-10.1,8.1-10.5c6.8-0.5,7.6,5.4,9.6,9.9c2,4.5,4,9.1,6,13.6c0.8,0.5,1.6,1,2.4,1.5c1.1-2,1.9-4.3,3.4-5.9
				c9.9-10.8,19.9-21.5,30.1-32.1c3.5-3.6,6.2-9.7,12.7-7c6.2,2.6,5.7,8.9,5.8,14.3c0.1,3.9-0.5,7.7-1,11.6
				c-0.4,3.3-1.3,6.5-1.8,9.3c13.2-2.7,25.8-6,38.7-7.8c12.9-1.8,26-2.3,39-3.1c8.5-0.5,11.8,3.9,9.2,12c-0.8,2.5-2.2,5.1-4,7
				c-16.1,15.9-32.3,31.7-48.5,47.5c-0.4,0.4-0.5,1-0.4,0.7c8.9,4.1,17.8,7.7,26.1,12.4c2.7,1.6,5.4,6.2,5.2,9.1
				c-0.2,2.4-4.6,5-7.7,6.3c-4.4,1.8-9.2,2.6-13.9,3.5c-15.2,2.6-30.4,5.1-48.2,8c3.4,2.4,5.5,3.8,7.5,5.4c3.3,2.8,6.6,6.5,3.5,10.5
				c-1.9,2.4-6.4,3.9-9.8,3.9c-9.4,0-18.8-0.9-28.1-1.4c-2-0.1-4,0-6.5,0c9.8,8.1,18.8,15.5,28,23.1c1.7-1.4,3.6-2.9,5.5-4.5
				c57.8-48.3,147.8-29.2,180.3,38.7c5.8,12.2,8.5,25.9,12.6,38.8v26.1c-0.4,1.3-1.1,2.5-1.3,3.9c-7,42.8-30.5,73.1-69.7,91.4
				c-3.3,1.5-6.6,2.8-9.9,4.3c5,18,6.4,35.7,3,53.5c-9.2,49.4-44.9,85.6-94.1,95.5c-4.1,0.8-5.1,2.3-5.1,6.3
				c0.1,6.6,0.1,13.4-1,19.9c-10.4,61.3-59.5,101.7-121.6,100.6c-49.2-0.9-96.2-37.6-108.4-85.3c-3.2-12.7-4.2-26-6.3-39.6
				c-38.3-4.8-69.4-23.4-89.7-57.8c-20.3-34.4-21.6-70.6-6.4-107.6c-2.1-1.3-3.8-2.4-5.6-3.5c-28.2-17-46.7-41.3-55-73.2
				C1145.2,432.2,1144.1,427,1142.9,422 M1341.5,408.5c0,48.8,39.8,88.6,88.7,88.8c48.7,0.2,88.8-39.8,88.9-88.6
				c0.1-48.8-39.8-88.9-88.7-88.6C1379,320.5,1341.8,361,1341.5,408.5 M1593.8,504.7c58.4-0.2,99.1-44.4,93.9-97.1
				c-3.5-35.4-22.6-60.7-55.7-73.6c-33.8-13.2-65-6.7-92.7,17c-3.2,2.7-3.5,4.9-1.8,8.8c16.1,36.6,14.4,72.4-5,107.3
				c-1.9,3.5-1.6,5.4,1,8.2C1551.3,494.5,1573.2,504.1,1593.8,504.7 M1267,320.1c-59.2-0.2-100.1,45.1-93.7,99.6
				c4.3,36.5,25.5,61.5,60.3,72.9c34.2,11.2,64.9,2.9,91-22.1c2.6-2.5,2.6-4.6,1.1-7.7c-18-36-18-72.1-0.1-108.1
				c1.7-3.4,1.6-5.5-1.2-8.2C1306.8,329.2,1285.9,320.6,1267,320.1 M1235.2,523.8c-7.9,15.7-10.5,32.2-8.1,49
				c7.3,51,51.5,83.6,102.4,76.3c57.2-8.3,91.4-72.8,66.1-124.4c-0.9-1.9-2.6-4.1-4.4-4.8c-17.3-6.2-32.3-16-45.5-29
				C1314.5,520.5,1278,531.9,1235.2,523.8 M1509.7,495.8c0.8-0.5,0.2-0.2-0.3,0.2c-18.1,16-39,26-63.1,29.4c-2.2,0.3-5,3.1-5.9,5.4
				c-6,15.5-7.5,31.6-4.2,47.8c10,48.7,55.8,79.3,104.6,70.1c49.4-9.3,82-61.6,68.4-109.7c-1.1-4-2.5-5.5-6.9-5.3
				c-19.8,0.8-38.9-2.9-56.1-12.9C1533.8,513.6,1522.4,504.5,1509.7,495.8 M1334.8,678.2c-4.7,30.2,12,65.3,39.8,82.5
				c32.5,20,65.8,20,97.6-0.9c28.4-18.7,40.6-46.4,39.2-80.4c-40.8-5.6-71.1-25.9-92.1-61.5C1399.9,651.1,1371.9,671,1334.8,678.2
				 M1515,184.1c-10.7,11.3-20.7,22-30.9,32.6c-5.9,6.2-9.9,5.8-15-1.2c-1.9-2.6-3.4-5.3-5.8-9c-7.6,25.8-15,50.6-22.8,77
				c2.4-1.8,3.3-2.5,4.2-3.1c16.4-12.1,32.4-24.7,49.2-36.1c10-6.8,21.1-11.8,31.9-17.4c1.5-0.8,3.9,0.1,5.8,0.2
				c-1.1,1.7-2.1,3.5-3.5,4.9c-0.9,0.9-2.4,1.2-3.6,1.8c-23.3,11.4-45,25.4-65.2,41.7c-4.5,3.6-8.8,7.6-14.6,12.6
				c22.6,1.6,43.2,3.1,65.2,4.7c-2.1-2.4-3.5-3.6-4.2-5.1c-1.4-3.1-4-7-3.1-9.4c0.9-2.4,5.4-4.3,8.6-4.8c10.2-1.4,20.5-1.8,30.8-2.9
				c6.8-0.8,13.6-2.2,22.1-3.6c-8.7-3.1-15.8-5-22.2-8.2c-2.7-1.3-5.8-5.4-5.7-8.1c0.2-2.6,3.8-5.8,6.7-7.3
				c20.8-10.8,35.6-28.1,52.4-45.9c-3.8,0-5.8-0.2-7.7,0c-12.5,1.6-25.1,2.7-37.3,5.4c-8.5,1.9-16.5,6.1-24.8,9.2
				c-3,1.1-7.3,3.5-9,2.4c-2.7-1.8-5.1-6.2-5-9.4C1511.8,198.5,1513.7,191.8,1515,184.1 M1321.2,215.3c-0.2,9.9,2.5,15.2,8.8,17.6
				c9.8,3.8,24.9-1.5,32.9-11.6c7.1-9,7.8-21.3,1.5-30.6c-0.8-1.2-2.2-2.4-3.5-2.8C1341.2,181.5,1321.6,195.1,1321.2,215.3"/>
			<path class="st4" d="M1431.2,482.2c-0.7-0.6-2.2-1.9-3.6-3.3c1.5-1,3-2.9,4.6-3c21.4-1,38.5-10,51.8-26.7
				c1.1-1.4,3.6-1.5,5.5-2.3c-0.3,1.9,0,4.4-1.1,5.8C1474.5,471.2,1455.6,480.4,1431.2,482.2"/>
			<path class="st4" d="M1503.8,412.7c-1.3,6.4-2.3,12-3.8,17.4c-0.3,1.2-2.5,2-3.8,2.9c-0.6-1.5-1.8-3-1.7-4.4
				c0.6-5.2,1.5-10.3,2.7-15.4c0.6-2.4,2.3-4.6,3.4-6.8C1501.8,408.6,1502.8,410.8,1503.8,412.7"/>
		</g>
	</g>
</g>
<g>
	<g>
		<defs>
			<rect id="SVGID_9_" x="670.8" y="966.4" width="1605.5" height="1083.8"/>
		</defs>
		<clipPath id="SVGID_10_">
			<use xlink:href="#SVGID_9_"  style="overflow:visible;"/>
		</clipPath>
		<g class="st5">
			<defs>
				<rect id="SVGID_11_" x="670.8" y="966.4" width="1605.5" height="1083.8"/>
			</defs>
			<clipPath id="SVGID_12_">
				<use xlink:href="#SVGID_11_"  style="overflow:visible;"/>
			</clipPath>
			<path class="st6" d="M1269.7,1861c-41.9-12.6-71.8-32.5-89.5-59.6c-17.8-27.2-26.6-60.2-26.6-99.2v-77.7c0-28-6.5-49.8-19.4-65.5
				c-12.9-15.7-32.9-23.6-60-23.6v-35.7c27,0,47-7.7,60-23c12.9-15.3,19.4-37.1,19.4-65.3V1333c0-39.2,8.9-72.5,26.6-99.8
				c17.7-27.4,47.6-47.4,89.5-60l8.9,27.2c-29.1,9.4-50.4,25.7-63.8,48.8c-13.4,23.1-20.1,51.1-20.1,83.9v78.4
				c0,25.2-5.2,47.1-15.6,65.6c-10.4,18.6-26.3,32.1-47.6,40.6c21.3,8.9,37.2,22.7,47.6,41.4c10.4,18.7,15.6,40.5,15.6,65.5v77.7
				c0,32.8,6.8,60.4,20.5,83c13.6,22.6,35.1,38.7,64.4,48.3L1269.7,1861z"/>
			<path class="st6" d="M1667.5,1833.5c29.1-9.6,50.5-25.7,64.3-48.3c13.7-22.6,20.6-50.2,20.6-83v-77.7c0-25.7,5.4-47.8,16.1-66.3
				c10.8-18.6,27.5-32,50.2-40.2c-22.7-8-39.4-21.3-50.2-39.9c-10.8-18.6-16.1-40.8-16.1-66.7V1333c0-33-6.7-61-20.1-84
				c-13.4-23-34.7-39.2-63.8-48.6l8.9-27.2c41.7,12.6,71.5,32.6,89.4,60c17.9,27.4,26.8,60.7,26.8,99.8v78.4
				c0,28,6.4,49.7,19.2,65.1c12.8,15.5,32.9,23.2,60.1,23.2v35.7c-27.3,0-47.3,7.9-60.1,23.6c-12.8,15.7-19.2,37.5-19.2,65.5v77.7
				c0,39-8.9,72-26.6,99.2c-17.8,27.1-47.6,47-89.5,59.6L1667.5,1833.5z"/>
			<path class="st6" d="M1635.6,1258.3c-16.8,0-30.4,13.7-30.4,30.4c0,1.2,0.1,2.4,0.2,3.5l-26.9,6.8c4,4,7.5,8.5,10.4,13.4
				l22.3-5.7c5.5,7.5,14.4,12.3,24.4,12.3c16.8,0,30.4-13.7,30.4-30.4C1666.1,1271.9,1652.4,1258.3,1635.6,1258.3 M1635.6,1303.6
				c-8.2,0-14.9-6.7-14.9-14.9c0-8.2,6.7-14.9,14.9-14.9c8.2,0,14.9,6.7,14.9,14.9C1650.5,1296.9,1643.8,1303.6,1635.6,1303.6"/>
			<path class="st6" d="M1348.5,1301.3c-0.6-0.3-1.2-0.6-1.9-0.8l-38.9-9.9c0.1-1.1,0.2-2.3,0.2-3.5c0-16.8-13.7-30.4-30.4-30.4
				c-16.8,0-30.4,13.7-30.4,30.4c0,16.8,13.7,30.4,30.4,30.4c10,0,18.9-4.9,24.4-12.3l38.8,9.9l3.3,3.2
				C1344.8,1312.5,1346.3,1306.7,1348.5,1301.3 M1277.4,1302c-8.2,0-14.9-6.7-14.9-14.9c0-8.2,6.7-14.9,14.9-14.9
				c8.2,0,14.9,6.7,14.9,14.9C1292.3,1295.3,1285.7,1302,1277.4,1302"/>
			<path class="st6" d="M1640.8,1715c-6.1,0-11.7,1.8-16.4,4.9l-51.5-46.7l9.6-47.2c0.5-2.6-0.3-5.3-2.2-7.1l-39.9-38.8
				c-1,5.7-2.9,11.3-5.3,16.6l31.2,30.4l-9.7,47.4c-0.5,2.7,0.4,5.5,2.4,7.3l54.7,49.7c-2.2,4.2-3.5,9-3.5,14.1
				c0,16.8,13.7,30.5,30.4,30.5c16.8,0,30.4-13.7,30.4-30.5C1671.3,1728.7,1657.6,1715,1640.8,1715 M1640.8,1760.4
				c-8.2,0-14.9-6.7-14.9-14.9c0-8.2,6.7-14.9,14.9-14.9c8.2,0,14.9,6.7,14.9,14.9C1655.7,1753.7,1649.1,1760.4,1640.8,1760.4"/>
			<path class="st6" d="M1373,1413.2l-24.4-28.8c-1.7-2-4.3-3-6.9-2.7l-71.9,8.4c-4.7-10.9-15.4-18.5-28-18.5
				c-16.8,0-30.4,13.7-30.4,30.4s13.7,30.4,30.4,30.4c15.6,0,28.5-11.8,30.2-27l67.3-7.9l26.9,31.9
				C1367.9,1423.8,1370.2,1418.3,1373,1413.2 M1241.9,1417c-8.2,0-14.9-6.7-14.9-14.9s6.7-14.9,14.9-14.9c8.2,0,14.9,6.7,14.9,14.9
				S1250.1,1417,1241.9,1417"/>
			<path class="st6" d="M1702.6,1367.7c-12.5,0-23.3,7.6-28,18.5l-71.9-8.4c-2.6-0.3-5.2,0.7-6.8,2.7l-32.5,38.3
				c2.6,5.5,4.4,11.4,5.5,17.7l36.2-42.8l67.4,7.9c1.7,15.2,14.6,27,30.2,27c16.8,0,30.4-13.7,30.4-30.4
				C1733.1,1381.4,1719.4,1367.7,1702.6,1367.7 M1702.6,1413c-8.2,0-14.9-6.7-14.9-14.9c0-8.2,6.7-14.9,14.9-14.9
				c8.2,0,14.9,6.7,14.9,14.9C1717.5,1406.4,1710.8,1413,1702.6,1413"/>
			<path class="st6" d="M1351.5,1486.4c-0.1-2.4,0-4.9,0.2-7.3c-0.5,0.8-1,1.8-1.1,2.8l-9.1,47l-57.3,40.4
				c-5.3-4.4-12.1-7.1-19.5-7.1c-16.8,0-30.4,13.7-30.4,30.4s13.7,30.4,30.4,30.4c16.8,0,30.4-13.6,30.4-30.4c0-3.8-0.7-7.4-2-10.7
				l59.9-42.1c1.6-1.2,2.8-2.9,3.2-4.9l3.6-18.7C1354.9,1507.5,1351.9,1497.4,1351.5,1486.4 M1264.6,1607.6
				c-8.2,0-14.9-6.7-14.9-14.9c0-8.2,6.7-14.9,14.9-14.9c8.2,0,14.9,6.7,14.9,14.9C1279.5,1600.9,1272.9,1607.6,1264.6,1607.6"/>
			<path class="st6" d="M1665.6,1562.3c-7.4,0-14.2,2.7-19.5,7.1l-57.3-40.4l-5.3-27.4c-1.7,6-4.2,11.7-7.3,17
				c-0.8,3.5-1.9,7-3.2,10.4l1.2,6.1c0.4,2,1.5,3.7,3.2,4.9l59.9,42.1c-1.3,3.3-2,6.9-2,10.7c0,16.8,13.7,30.4,30.4,30.4
				c16.8,0,30.4-13.6,30.4-30.4S1682.4,1562.3,1665.6,1562.3 M1665.6,1607.6c-8.2,0-14.9-6.7-14.9-14.9c0-8.2,6.7-14.9,14.9-14.9
				c8.2,0,14.9,6.7,14.9,14.9C1680.5,1600.9,1673.8,1607.6,1665.6,1607.6"/>
			<path class="st6" d="M1368.2,1676.4c0.2-0.2,0.4-0.4,0.5-0.6c0.4-3.3,0.8-6.6,1.2-9.9l-9-44.2l17-16.5c0.2-1.8,0.4-3.7,0.6-5.9
				c0.7-6.1,1.3-12.1,1.8-18.1l-33.3,32.4c-1.9,1.9-2.7,4.5-2.2,7.1l9.6,47.2l-51.5,46.7c-4.7-3.1-10.4-4.9-16.4-4.9
				c-16.8,0-30.4,13.7-30.4,30.4c0,16.8,13.7,30.5,30.4,30.5c16.8,0,30.4-13.7,30.4-30.5c0-5.1-1.3-9.9-3.5-14.1L1368.2,1676.4z
				 M1286.5,1755c-8.2,0-14.9-6.7-14.9-14.9c0-8.2,6.7-14.9,14.9-14.9c8.2,0,14.9,6.7,14.9,14.9
				C1301.4,1748.4,1294.7,1755,1286.5,1755"/>
			<path class="st7" d="M1529.5,1746.1h-129.7l2.1-9.1c11.3-49.3,15.2-87.1,12.1-115.9c-1.7-15.5-10.2-33-19.3-51.6
				c-11.6-23.9-24.8-50.9-25.6-77.7c-0.3-10.2,0.7-22,2.9-35.1l1-6.2h40.9l1.5,5.4c3.4,12.2,14.6,20.7,27.3,20.7
				c12.6,0,23.9-8.5,27.3-20.7l1.5-5.4h84.9l1,6.2c2.2,13.1,3.2,24.9,2.8,35.1c-0.8,26.8-13.9,53.8-25.6,77.6
				c-9.1,18.6-17.6,36.2-19.3,51.6c-3.2,28.7,0.8,66.6,12.1,115.9L1529.5,1746.1z"/>
			<path class="st6" d="M1598.3,1318.4c0-31.6-25.7-57.3-57.3-57.3h-8.1c-11.5-25.1-36.9-42-65.4-42c-28.6,0-53.9,17-65.4,42h-8.1
				c-31.6,0-57.4,25.7-57.4,57.3c0,22.5,13.1,42.1,32,51.4c-4.1,10.3-27.9,73.3-26.5,122.8c1,32.6,15.5,62.4,28.3,88.7
				c8,16.4,15.5,31.9,16.7,42.7c4.4,39.8-8.9,95.9-13.3,114.4c-2,8.4-0.1,17.1,5.3,23.9c5.4,6.8,13.5,10.7,22.2,10.7H1528
				c8.7,0,16.8-3.9,22.2-10.7c5.4-6.8,7.3-15.5,5.3-23.9c-4.4-18.4-17.7-74.6-13.3-114.4c1.2-10.8,8.7-26.3,16.7-42.7
				c12.8-26.3,27.3-56.1,28.3-88.7c1.4-46.9-19.9-105.8-25.7-120.7C1583,1363.7,1598.3,1342.8,1598.3,1318.4 M1552.8,1491.7
				c-0.7,25.2-13.5,51.5-24.8,74.7c-9.3,19.2-18.1,37.3-20,54c-4.2,38,4.4,84.3,12.2,118.3h-111c7.8-34,16.4-80.3,12.2-118.3
				c-1.8-16.7-10.7-34.8-20-54c-11.3-23.2-24.1-49.5-24.8-74.7c-0.3-10.6,0.8-22.1,2.7-33.6h28.9c4.2,15.1,18.1,26.1,34.4,26.1
				c16.4,0,30.2-11.1,34.4-26.1h73C1551.9,1469.5,1553.1,1481.1,1552.8,1491.7 M1406.8,1438.3h-23.6c4.4-18.7,10-35.7,13.7-46.2h9.8
				V1438.3z M1478.4,1392.2h53.9c3.7,10.4,9.3,27.4,13.7,46.2h-67.6V1392.2z M1541,1356.1h-62.6v-9.2c0-5.4-4.4-9.8-9.8-9.8
				c-5.4,0-9.8,4.4-9.8,9.8v101.5c0,8.9-7.2,16.1-16.1,16.1c-8.9,0-16.1-7.2-16.1-16.1v-101.5c0-5.4-4.4-9.8-9.9-9.8
				c-5.4,0-9.8,4.4-9.8,9.8v9.2h-13c-20.8,0-37.7-16.9-37.7-37.7c0-20.8,16.9-37.7,37.7-37.7h22.3c4.7-24,25.9-42.1,51.2-42.1
				c25.4,0,46.5,18.1,51.2,42.1h22.3c20.8,0,37.7,16.9,37.7,37.7C1578.7,1339.2,1561.8,1356.1,1541,1356.1"/>
		</g>
	</g>
</g>
<path d="M646.9,328.9c18.4,1.4,40.4,2.4,62.2,4.9c11.8,1.3,22.6,5.8,22.5,20.9c-0.2,31.5-0.5,62.9-0.7,96.3c5.8,1.2,15.4,3.9,25.2,5
	c14.3,1.5,20.7,8.8,21.7,23.1c4.6,62.9-0.6,124.1-33.5,179.6c-22.6,38.2-56.5,61.6-99.8,73.3c-40.2,10.9-80.4,11.9-123.1,8.7
	c-1,17.9-2,35.9-3,53.8c-0.3,5.7,0.3,11.7-0.9,17.2c-2.4,10.9-8.7,18.6-21.2,17.1c-11.4-1.4-20.5-6-20.3-19.7
	c0.3-17.7,0.8-35.4,1.2-53.2c0.1-6,0.1-12.1,0.1-18.7c-40.7-0.2-80-2.8-118-15.4c-66.5-21.9-105.6-67.7-121-135.3
	c-8.8-38.7-8.2-77.7-4.8-116.8c2.4-27.6,11.4-36.1,38.8-36.9c18.2-0.5,17.5-1.5,16.9-19.1c-0.8-24.4-0.5-49,2.1-73.1
	c2.3-21.9,8.1-22.8,38.5-24.1c15.7-0.7,31.5,1.5,47.3,1.7c2.9,0,7.9-2.9,8.4-5.2c11.2-52.3,41-92.7,80.2-127.2
	c11.1-9.8,22-20.2,34.1-28.7c19.8-14.1,21.4-12.5,40.3,2.9c35.8,29.2,64.3,63.8,82.9,106C631.7,286,638.5,306.6,646.9,328.9z
	 M472.6,697.8c6.5-37.3,4.6-70.7-2.8-102.9c-11.1-48-36.1-85.6-86.3-102.3c-35-11.6-70.4-15.1-110.9-14.4c1.1,28.6,0,56.9,3.7,84.5
	c7.7,57.7,36.7,101.1,94.8,117.4C403.7,689.3,438.2,692.1,472.6,697.8z M730.4,495c-33.8,2.4-66.2,2.5-97.8,7.6
	c-45,7.2-76.9,33.3-95.2,75.9c-14.9,34.6-13.5,71.3-15.7,107.6c-0.6,10.1,5.9,11.1,13.1,10.9c24.8-0.7,49.9,0,74.5-3.2
	c35.5-4.6,68.7-18.6,89.9-48.1C730.1,602.4,737.1,552.4,730.4,495z M509,404.6c18.8-27.8,40.6-48,69-59.6
	c20.3-8.3,21.1-8.3,16.1-29.8c-1.1-4.7-3.1-9.2-4.7-13.8c-14.8-40.8-40.6-73.8-73.1-102.7c-32.7,26.4-61,56.2-79.4,94
	c-5.5,11.4-8.9,24.7-9.3,37.2c-0.1,3.4,13.9,7.4,21.5,11.1c2.2,1.1,4.5,2.1,6.4,3.5C476.7,360.4,497.5,376.8,509,404.6z
	 M690.5,377.1c-102.9-11.5-159.1,28.9-161.3,131.4c10.7-8.4,20-16.5,30-23.5c31.2-21.6,67.1-30,104-33.2
	c10.9-0.9,17.4-2.6,18.9-14.1C684.8,417.5,687.7,397.3,690.5,377.1z M478.2,507c1.3-5,3-8.1,2.8-11.1c-1.3-17.7-1.6-35.6-5.1-52.9
	c-4.3-21.8-14.9-42.2-33.4-54.4c-30.5-20.1-65.6-27-102.1-27.7c-9-0.2-11.3,3.2-11.2,10.6c0.1,12-0.1,24,0.7,36
	c2,28.8,1,27.5,25.9,29.3c4.7,0.3,9.2,2.4,13.9,3.6C411.7,451.1,449.7,468.4,478.2,507z"/>
<g>
</g>
<g>
</g>
<g>
</g>
<g>
</g>
<g>
</g>
<g>
</g>
<g>
</g>
<g>
</g>
<g>
</g>
<g>
</g>
<g>
</g>
<g>
</g>
<g>
</g>
<g>
</g>
<g>
</g>
</svg>
