<?xml version="1.0" encoding="utf-8"?>
<!-- Generator: Adobe Illustrator 23.1.0, SVG Export Plug-In . SVG Version: 6.00 Build 0)  -->
<svg version="1.1" id="Layer_1" xmlns="http://www.w3.org/2000/svg" xmlns:xlink="http://www.w3.org/1999/xlink" x="0px" y="0px"
	 viewBox="0 0 1063.7 426.6" style="enable-background:new 0 0 1063.7 426.6;" xml:space="preserve">
<style type="text/css">
	.st0{stroke:#000000;stroke-miterlimit:10;}
	.st1{clip-path:url(#SVGID_2_);}
	.st2{clip-path:url(#SVGID_4_);}
	.st3{clip-path:url(#SVGID_6_);}
	.st4{clip-path:url(#SVGID_8_);}
	.st5{clip-path:url(#SVGID_10_);}
	.st6{clip-path:url(#SVGID_12_);}
	.st7{clip-path:url(#SVGID_12_);fill:#FEC026;}
	.st8{fill:none;}
</style>
<rect x="199.1" y="50.1" class="st0" width="2.3" height="324"/>
<rect x="199" y="48.8" transform="matrix(4.805845e-10 -1 1 4.805845e-10 -10.5484 411)" class="st0" width="2.4" height="324"/>
<g>
	<g>
		<defs>
			<rect id="SVGID_1_" x="12.5" y="230.9" width="219.4" height="148.1"/>
		</defs>
		<clipPath id="SVGID_2_">
			<use xlink:href="#SVGID_1_"  style="overflow:visible;"/>
		</clipPath>
		<g class="st1">
			<defs>
				<rect id="SVGID_3_" x="12.5" y="230.9" width="219.4" height="148.1"/>
			</defs>
			<clipPath id="SVGID_4_">
				<use xlink:href="#SVGID_3_"  style="overflow:visible;"/>
			</clipPath>
			<path class="st2" d="M112.9,241.1h18.5c1.1,0.6,1.5,1.4,1.4,2.6c-0.2,1.7-0.5,3.4-0.7,5.1c-0.2,1.3-0.3,2.7-0.5,4.1
				c0.4,0,0.7,0,1,0c1.8,0,3.7,0,5.5,0c1.2,0,1.9,0.9,1.9,2c0,0.2,0,0.3,0,0.5c0,3.7-0.1,7.3,0,11c0,1.7-1,2.7-2.5,2.6
				c-1.2-0.1-2.4,0-3.7,0c-0.2,0-0.4,0-0.6,0.1v11.1c0.9,0,1.9,0,2.8,0c1.3,0.1,2.6,0.1,3.9,0.4c7.9,1.5,14.1,8.9,14.1,16.9
				c0,19.7,0,39.4,0,59.1c0,3.4-2.8,6.2-6.2,6.2c-17.1,0-34.3,0-51.4,0c-2.5,0-4.7-1.5-5.7-3.9c-0.2-0.4-0.3-0.8-0.5-1.2v-61.7
				c0.1-0.1,0.1-0.3,0.1-0.4c0.9-5.9,4-10.3,9.1-13.2c2.6-1.5,5.5-2.2,8.5-2.2c1,0,2,0,3,0v-11.1c-1.6,0-3.1,0-4.6,0
				c-1.3,0-2.2-0.8-2.2-2.1c0-4,0-7.9,0-11.9c0-1.2,0.8-2,2.1-2.1c0.6,0,1.3,0,1.9,0c1.5,0,2.9,0,4.5,0c-0.1-0.5-0.1-0.9-0.1-1.4
				c-0.3-2.6-0.6-5.2-1-7.8C111.3,242.6,111.7,241.7,112.9,241.1 M94.4,342.9v0.8c0,4.1,0,8.3,0,12.4c0,1.8,0.9,2.6,2.6,2.6
				c16.7,0,33.5,0,50.2,0c1.9,0,2.6-0.8,2.6-2.6c0-19.4,0-38.7,0-58.1c0-0.7-0.1-1.4-0.2-2.1c-1-6.3-6.7-11.3-13-11.4
				c-9.6-0.1-19.2,0-28.8,0c-1,0-2,0.2-2.9,0.4c-6.2,1.6-10.4,7-10.5,13.4c0,2.6,0,5.3,0,7.9c0,0.2,0,0.4,0,0.7h1
				c9.8,0,19.5,0,29.3,0c1.5,0,3,0,4.5,0c1.7,0,2.5,0.9,2.5,2.5c0,10.4,0,20.7,0,31.1c0,1.5-0.9,2.5-2.5,2.5c-11.3,0-22.5,0-33.8,0
				H94.4z M94.4,338.7h33v-27.6h-33v11c1.5-1.5,2.9-2.9,4.4-4.2c0.6-0.6,1.4-0.8,2.2-0.5c0.8,0.3,1.2,0.9,1.4,1.7
				c0.1,0.7-0.2,1.3-0.7,1.9c-1.3,1.4-2.6,2.8-3.9,4.2c1.2,1.3,2.6,2.6,3.9,4.1c0.8,0.9,0.8,2.1,0,2.9c-0.8,0.8-2.1,0.9-3,0.1
				c-0.4-0.3-0.7-0.7-1-1c-1.1-1.1-2.2-2.1-3.3-3.2V338.7z M135.8,257.2h-27.4v7.7h27.4V257.2z M128.9,269.2h-13.7v11h13.7V269.2z
				 M116.9,252.9c0.1,0.1,0.2,0.1,0.2,0.1c3.3,0,6.5,0,9.8,0c0.2,0,0.5-0.3,0.5-0.5c0.3-2.4,0.6-4.8,0.9-7.2h-12.4
				C116.2,247.8,116.6,250.4,116.9,252.9"/>
			<path class="st2" d="M146.6,302.7c0,1.9,0,3.7,0,5.6c0,1.3-0.8,2.2-2,2.2c-1.2,0-2.1-0.9-2.1-2.2c0-3.3,0-6.7,0-10
				c0-3.6-2.8-6.3-5.8-6.4c-0.4,0-0.9-0.1-1.3-0.2c-0.9-0.3-1.5-1.3-1.3-2.3c0.2-1,1-1.7,2-1.7c4.5-0.2,8.9,3.1,10.1,7.7
				c0.2,0.9,0.3,1.8,0.4,2.6C146.6,299.5,146.6,301.1,146.6,302.7"/>
			<path class="st2" d="M146.6,316.4c0,0.7,0,1.3,0,2c-0.1,1.1-0.9,1.9-2,1.9c-1.1,0-2-0.8-2.1-1.9c-0.1-1.4-0.1-2.7,0-4.1
				c0-1.1,1-1.9,2.1-1.9c1.1,0,2,0.8,2,1.9C146.6,315.1,146.6,315.8,146.6,316.4"/>
			<path class="st2" d="M116.2,321.8c1.3-1.3,2.7-2.6,4-3.9c0.5-0.5,1.2-0.7,1.9-0.6c0.8,0.2,1.4,0.6,1.6,1.5c0.3,0.8,0,1.5-0.5,2.1
				c-1.3,1.3-2.6,2.5-3.9,3.8c-0.1,0.1-0.2,0.2-0.3,0.3c1.3,1.3,2.6,2.7,3.9,4c0.6,0.6,0.9,1.3,0.7,2.1c-0.4,1.6-2.3,2.1-3.5,1
				c-1.4-1.4-2.8-2.7-4.5-4.3c-1.2,1.3-2.4,2.6-3.7,3.9c-1,1-2.3,1.1-3.2,0.2c-0.9-0.9-0.8-2.2,0.2-3.2c1.3-1.3,2.5-2.7,3.8-4.1
				c-1.2-1.2-2.5-2.5-3.7-3.9c-1-1-1-2.3-0.2-3.1c0.9-0.9,2.1-0.8,3.2,0.2C113.5,319.2,114.8,320.4,116.2,321.8"/>
		</g>
	</g>
</g>
<g>
	<g>
		<defs>
			<rect id="SVGID_5_" x="118.6" y="3.5" width="354" height="239"/>
		</defs>
		<clipPath id="SVGID_6_">
			<use xlink:href="#SVGID_5_"  style="overflow:visible;"/>
		</clipPath>
		<g class="st3">
			<defs>
				<rect id="SVGID_7_" x="118.6" y="3.5" width="354" height="239"/>
			</defs>
			<clipPath id="SVGID_8_">
				<use xlink:href="#SVGID_7_"  style="overflow:visible;"/>
			</clipPath>
			<path class="st4" d="M238.6,117.8v-4.7c0.1-0.3,0.2-0.5,0.2-0.8c2-13.3,16.8-21,28.8-15.1c2.1,1.1,4,2.6,6.1,3.9
				c2.6-2.7,6-4.5,9.9-5.4c0.2-4.9-0.2-9.7-1.1-14.4c-0.3-1.6-1.3-2.3-2.6-2.7c0.4,5.1-1.8,8.3-6.3,9.3c-3.1,0.7-5.8-1-6.6-3.9
				c-0.9-3.6,1.1-7.3,4.6-8.5c0.8-0.3,1.6-0.4,2.4-0.6c-1.7-1.9-5.1-3.7-7.9-4.2c-3.2-0.6-5.9,0.4-7.8,3.1c-2.8,4-2.1,9.3,1.6,12.5
				c0.7,0.6,1.3,1.2,0.6,2.1c-0.7,0.9-1.5,0.4-2.2-0.1c-3.9-3-5.3-8.5-3.3-13.5c1.9-4.9,6.2-7.4,11.4-6.5c4.2,0.7,7.6,2.9,10.4,5.9
				c1.2,1.3,2.6,1.6,4.2,2.2c-1.4-3.5-3-6.6-6.2-8.6c-1.4-0.9-1.6-2.4-0.8-3.6c0.8-1.2,2.4-1.5,3.6-0.5c1.5,1.2,3.1,2.5,4.3,4
				c3.6,4.4,5.1,9.6,5.9,15.1c0.3,2,0.5,4.1,0.8,6.4c0.2-0.6,0.3-0.9,0.4-1.2c1-3.4,2.1-6.9,3.1-10.3c0.2-0.8,0.3-1.7,1.4-1.8
				c1.2-0.1,1.3,0.9,1.7,1.7c0.4,0.8,0.7,1.6,1,2.3c0.1,0.1,0.3,0.2,0.4,0.3c0.2-0.3,0.3-0.7,0.6-1c1.7-1.9,3.4-3.7,5.2-5.5
				c0.6-0.6,1.1-1.7,2.2-1.2c1.1,0.4,1,1.5,1,2.5c0,0.7-0.1,1.3-0.2,2c-0.1,0.6-0.2,1.1-0.3,1.6c2.3-0.5,4.4-1,6.7-1.3
				c2.2-0.3,4.5-0.4,6.7-0.5c1.5-0.1,2,0.7,1.6,2.1c-0.1,0.4-0.4,0.9-0.7,1.2c-2.8,2.7-5.6,5.5-8.4,8.2C311,88,311,88.1,311,88
				c1.5,0.7,3.1,1.3,4.5,2.1c0.5,0.3,0.9,1.1,0.9,1.6c0,0.4-0.8,0.9-1.3,1.1c-0.8,0.3-1.6,0.5-2.4,0.6c-2.6,0.5-5.2,0.9-8.3,1.4
				c0.6,0.4,1,0.7,1.3,0.9c0.6,0.5,1.1,1.1,0.6,1.8c-0.3,0.4-1.1,0.7-1.7,0.7c-1.6,0-3.2-0.2-4.8-0.2c-0.3,0-0.7,0-1.1,0
				c1.7,1.4,3.2,2.7,4.8,4c0.3-0.2,0.6-0.5,1-0.8c10-8.3,25.5-5,31.1,6.7c1,2.1,1.5,4.5,2.2,6.7v4.5c-0.1,0.2-0.2,0.4-0.2,0.7
				c-1.2,7.4-5.3,12.6-12,15.7c-0.6,0.3-1.1,0.5-1.7,0.7c0.9,3.1,1.1,6.1,0.5,9.2c-1.6,8.5-7.7,14.7-16.2,16.5
				c-0.7,0.1-0.9,0.4-0.9,1.1c0,1.1,0,2.3-0.2,3.4c-1.8,10.6-10.2,17.5-21,17.3c-8.5-0.2-16.6-6.5-18.7-14.7
				c-0.6-2.2-0.7-4.5-1.1-6.8c-6.6-0.8-12-4-15.5-10c-3.5-5.9-3.7-12.2-1.1-18.5c-0.4-0.2-0.7-0.4-1-0.6c-4.9-2.9-8-7.1-9.5-12.6
				C239,119.6,238.8,118.7,238.6,117.8 M272.8,115.5c0,8.4,6.8,15.3,15.3,15.3c8.4,0,15.3-6.8,15.3-15.3c0-8.4-6.8-15.3-15.3-15.3
				C279.3,100.3,272.9,107.3,272.8,115.5 M316.3,132.1c10.1,0,17.1-7.6,16.2-16.7c-0.6-6.1-3.9-10.5-9.6-12.7
				c-5.8-2.3-11.2-1.2-16,2.9c-0.5,0.5-0.6,0.9-0.3,1.5c2.8,6.3,2.5,12.5-0.9,18.5c-0.3,0.6-0.3,0.9,0.2,1.4
				C309,130.3,312.8,132,316.3,132.1 M260,100.3c-10.2,0-17.3,7.8-16.1,17.2c0.7,6.3,4.4,10.6,10.4,12.6c5.9,1.9,11.2,0.5,15.7-3.8
				c0.5-0.4,0.5-0.8,0.2-1.3c-3.1-6.2-3.1-12.4,0-18.6c0.3-0.6,0.3-0.9-0.2-1.4C266.9,101.8,263.2,100.4,260,100.3 M254.5,135.4
				c-1.4,2.7-1.8,5.5-1.4,8.4c1.3,8.8,8.9,14.4,17.6,13.1c9.8-1.4,15.8-12.5,11.4-21.4c-0.2-0.3-0.4-0.7-0.8-0.8
				c-3-1.1-5.6-2.8-7.8-5C268.2,134.8,261.9,136.8,254.5,135.4 M301.8,130.5C302,130.5,301.8,130.5,301.8,130.5
				c-3.2,2.8-6.8,4.5-10.9,5.1c-0.4,0.1-0.9,0.5-1,0.9c-1,2.7-1.3,5.4-0.7,8.2c1.7,8.4,9.6,13.7,18,12.1
				c8.5-1.6,14.1-10.6,11.8-18.9c-0.2-0.7-0.4-0.9-1.2-0.9c-3.4,0.1-6.7-0.5-9.7-2.2C306,133.6,304,132,301.8,130.5 M271.7,162
				c-0.8,5.2,2.1,11.3,6.9,14.2c5.6,3.4,11.3,3.4,16.8-0.2c4.9-3.2,7-8,6.8-13.9c-7-1-12.3-4.5-15.9-10.6
				C282.9,157.3,278.1,160.7,271.7,162 M302.7,76.8c-1.8,2-3.6,3.8-5.3,5.6c-1,1.1-1.7,1-2.6-0.2c-0.3-0.4-0.6-0.9-1-1.5
				c-1.3,4.4-2.6,8.7-3.9,13.3c0.4-0.3,0.6-0.4,0.7-0.5c2.8-2.1,5.6-4.3,8.5-6.2c1.7-1.2,3.6-2,5.5-3c0.3-0.1,0.7,0,1,0
				c-0.2,0.3-0.4,0.6-0.6,0.8c-0.2,0.2-0.4,0.2-0.6,0.3c-4,2-7.8,4.4-11.2,7.2c-0.8,0.6-1.5,1.3-2.5,2.2c3.9,0.3,7.4,0.5,11.2,0.8
				c-0.4-0.4-0.6-0.6-0.7-0.9c-0.2-0.5-0.7-1.2-0.5-1.6c0.2-0.4,0.9-0.7,1.5-0.8c1.8-0.2,3.5-0.3,5.3-0.5c1.2-0.1,2.3-0.4,3.8-0.6
				c-1.5-0.5-2.7-0.9-3.8-1.4c-0.5-0.2-1-0.9-1-1.4c0-0.4,0.7-1,1.2-1.3c3.6-1.9,6.1-4.8,9-7.9c-0.7,0-1,0-1.3,0
				c-2.1,0.3-4.3,0.5-6.4,0.9c-1.5,0.3-2.9,1.1-4.3,1.6c-0.5,0.2-1.3,0.6-1.5,0.4c-0.5-0.3-0.9-1.1-0.9-1.6
				C302.2,79.3,302.5,78.2,302.7,76.8 M269.3,82.2c0,1.7,0.4,2.6,1.5,3c1.7,0.6,4.3-0.3,5.7-2c1.2-1.5,1.3-3.7,0.3-5.3
				c-0.1-0.2-0.4-0.4-0.6-0.5C272.8,76.4,269.4,78.7,269.3,82.2"/>
			<path class="st4" d="M288.3,128.2c-0.1-0.1-0.4-0.3-0.6-0.6c0.3-0.2,0.5-0.5,0.8-0.5c3.7-0.2,6.6-1.7,8.9-4.6
				c0.2-0.2,0.6-0.3,0.9-0.4c-0.1,0.3,0,0.8-0.2,1C295.7,126.3,292.5,127.9,288.3,128.2"/>
			<path class="st4" d="M300.8,116.2c-0.2,1.1-0.4,2.1-0.7,3c-0.1,0.2-0.4,0.3-0.6,0.5c-0.1-0.3-0.3-0.5-0.3-0.8
				c0.1-0.9,0.3-1.8,0.5-2.7c0.1-0.4,0.4-0.8,0.6-1.2C300.4,115.5,300.6,115.9,300.8,116.2"/>
		</g>
	</g>
</g>
<g>
	<g>
		<defs>
			<rect id="SVGID_9_" x="157.3" y="211.6" width="276.6" height="186.7"/>
		</defs>
		<clipPath id="SVGID_10_">
			<use xlink:href="#SVGID_9_"  style="overflow:visible;"/>
		</clipPath>
		<g class="st5">
			<defs>
				<rect id="SVGID_11_" x="157.3" y="211.6" width="276.6" height="186.7"/>
			</defs>
			<clipPath id="SVGID_12_">
				<use xlink:href="#SVGID_11_"  style="overflow:visible;"/>
			</clipPath>
			<path class="st6" d="M260.5,365.7c-7.2-2.2-12.4-5.6-15.4-10.3c-3.1-4.7-4.6-10.4-4.6-17.1V325c0-4.8-1.1-8.6-3.3-11.3
				c-2.2-2.7-5.7-4.1-10.3-4.1v-6.2c4.7,0,8.1-1.3,10.3-4c2.2-2.6,3.3-6.4,3.3-11.3v-13.5c0-6.8,1.5-12.5,4.6-17.2
				c3.1-4.7,8.2-8.2,15.4-10.3l1.5,4.7c-5,1.6-8.7,4.4-11,8.4c-2.3,4-3.5,8.8-3.5,14.4v13.5c0,4.3-0.9,8.1-2.7,11.3
				c-1.8,3.2-4.5,5.5-8.2,7c3.7,1.5,6.4,3.9,8.2,7.1c1.8,3.2,2.7,7,2.7,11.3v13.4c0,5.6,1.2,10.4,3.5,14.3c2.3,3.9,6,6.7,11.1,8.3
				L260.5,365.7z"/>
			<path class="st6" d="M329,361c5-1.7,8.7-4.4,11.1-8.3c2.4-3.9,3.6-8.7,3.6-14.3V325c0-4.4,0.9-8.2,2.8-11.4
				c1.9-3.2,4.7-5.5,8.6-6.9c-3.9-1.4-6.8-3.7-8.6-6.9c-1.9-3.2-2.8-7-2.8-11.5v-13.5c0-5.7-1.2-10.5-3.5-14.5c-2.3-4-6-6.8-11-8.4
				l1.5-4.7c7.2,2.2,12.3,5.6,15.4,10.3c3.1,4.7,4.6,10.4,4.6,17.2v13.5c0,4.8,1.1,8.6,3.3,11.2c2.2,2.7,5.7,4,10.4,4v6.2
				c-4.7,0-8.2,1.4-10.4,4.1c-2.2,2.7-3.3,6.5-3.3,11.3v13.4c0,6.7-1.5,12.4-4.6,17.1c-3.1,4.7-8.2,8.1-15.4,10.3L329,361z"/>
			<path class="st6" d="M323.5,261.9c-2.9,0-5.2,2.4-5.2,5.2c0,0.2,0,0.4,0,0.6l-4.6,1.2c0.7,0.7,1.3,1.5,1.8,2.3l3.8-1
				c1,1.3,2.5,2.1,4.2,2.1c2.9,0,5.2-2.4,5.2-5.2C328.8,264.3,326.4,261.9,323.5,261.9 M323.5,269.7c-1.4,0-2.6-1.1-2.6-2.6
				c0-1.4,1.2-2.6,2.6-2.6c1.4,0,2.6,1.2,2.6,2.6C326.1,268.6,324.9,269.7,323.5,269.7"/>
			<path class="st6" d="M274,269.3c-0.1-0.1-0.2-0.1-0.3-0.1l-6.7-1.7c0-0.2,0-0.4,0-0.6c0-2.9-2.4-5.2-5.2-5.2
				c-2.9,0-5.2,2.4-5.2,5.2s2.4,5.2,5.2,5.2c1.7,0,3.3-0.8,4.2-2.1l6.7,1.7l0.6,0.6C273.4,271.2,273.6,270.3,274,269.3 M261.8,269.4
				c-1.4,0-2.6-1.1-2.6-2.6s1.2-2.6,2.6-2.6c1.4,0,2.6,1.2,2.6,2.6S263.2,269.4,261.8,269.4"/>
			<path class="st6" d="M324.4,340.6c-1,0-2,0.3-2.8,0.8l-8.9-8.1l1.7-8.1c0.1-0.4-0.1-0.9-0.4-1.2l-6.9-6.7c-0.2,1-0.5,1.9-0.9,2.9
				l5.4,5.2l-1.7,8.2c-0.1,0.5,0.1,0.9,0.4,1.3l9.4,8.6c-0.4,0.7-0.6,1.6-0.6,2.4c0,2.9,2.4,5.2,5.2,5.2c2.9,0,5.2-2.4,5.2-5.2
				C329.6,343,327.3,340.6,324.4,340.6 M324.4,348.4c-1.4,0-2.6-1.2-2.6-2.6c0-1.4,1.1-2.6,2.6-2.6c1.4,0,2.6,1.2,2.6,2.6
				C327,347.3,325.8,348.4,324.4,348.4"/>
			<path class="st6" d="M278.3,288.6l-4.2-5c-0.3-0.3-0.7-0.5-1.2-0.5l-12.4,1.5c-0.8-1.9-2.7-3.2-4.8-3.2c-2.9,0-5.2,2.4-5.2,5.2
				s2.4,5.2,5.2,5.2c2.7,0,4.9-2,5.2-4.7l11.6-1.4l4.6,5.5C277.4,290.4,277.8,289.5,278.3,288.6 M255.7,289.3
				c-1.4,0-2.6-1.2-2.6-2.6s1.2-2.6,2.6-2.6c1.4,0,2.6,1.2,2.6,2.6S257.1,289.3,255.7,289.3"/>
			<path class="st6" d="M335.1,280.8c-2.2,0-4,1.3-4.8,3.2l-12.4-1.5c-0.4-0.1-0.9,0.1-1.2,0.5l-5.6,6.6c0.4,0.9,0.8,2,0.9,3
				l6.2-7.4l11.6,1.4c0.3,2.6,2.5,4.7,5.2,4.7c2.9,0,5.2-2.4,5.2-5.2S337.9,280.8,335.1,280.8 M335.1,288.6c-1.4,0-2.6-1.2-2.6-2.6
				c0-1.4,1.2-2.6,2.6-2.6c1.4,0,2.6,1.2,2.6,2.6C337.6,287.4,336.5,288.6,335.1,288.6"/>
			<path class="st6" d="M274.6,301.2c0-0.4,0-0.8,0-1.2c-0.1,0.1-0.2,0.3-0.2,0.5l-1.6,8.1l-9.9,7c-0.9-0.8-2.1-1.2-3.4-1.2
				c-2.9,0-5.2,2.4-5.2,5.2s2.4,5.2,5.2,5.2c2.9,0,5.2-2.4,5.2-5.2c0-0.6-0.1-1.3-0.3-1.8l10.3-7.3c0.3-0.2,0.5-0.5,0.5-0.8l0.6-3.2
				C275.1,304.8,274.6,303.1,274.6,301.2 M259.6,322.1c-1.4,0-2.6-1.2-2.6-2.6c0-1.4,1.2-2.6,2.6-2.6c1.4,0,2.6,1.2,2.6,2.6
				C262.2,320.9,261,322.1,259.6,322.1"/>
			<path class="st6" d="M328.7,314.3c-1.3,0-2.4,0.5-3.4,1.2l-9.9-7l-0.9-4.7c-0.3,1-0.7,2-1.3,2.9c-0.1,0.6-0.3,1.2-0.6,1.8l0.2,1
				c0.1,0.3,0.3,0.6,0.5,0.8l10.3,7.3c-0.2,0.6-0.3,1.2-0.3,1.8c0,2.9,2.4,5.2,5.2,5.2c2.9,0,5.2-2.4,5.2-5.2
				S331.6,314.3,328.7,314.3 M328.7,322.1c-1.4,0-2.6-1.2-2.6-2.6c0-1.4,1.2-2.6,2.6-2.6c1.4,0,2.6,1.2,2.6,2.6
				C331.2,320.9,330.1,322.1,328.7,322.1"/>
			<path class="st6" d="M277.4,333.9c0,0,0.1-0.1,0.1-0.1c0.1-0.6,0.1-1.1,0.2-1.7l-1.6-7.6l2.9-2.8c0-0.3,0.1-0.6,0.1-1
				c0.1-1,0.2-2.1,0.3-3.1l-5.7,5.6c-0.3,0.3-0.5,0.8-0.4,1.2l1.7,8.1l-8.9,8.1c-0.8-0.5-1.8-0.8-2.8-0.8c-2.9,0-5.2,2.4-5.2,5.2
				c0,2.9,2.4,5.2,5.2,5.2c2.9,0,5.2-2.4,5.2-5.2c0-0.9-0.2-1.7-0.6-2.4L277.4,333.9z M263.4,347.5c-1.4,0-2.6-1.2-2.6-2.6
				c0-1.4,1.2-2.6,2.6-2.6c1.4,0,2.6,1.2,2.6,2.6C265.9,346.3,264.8,347.5,263.4,347.5"/>
			<path class="st7" d="M305.2,346h-22.4l0.4-1.6c1.9-8.5,2.6-15,2.1-20c-0.3-2.7-1.8-5.7-3.3-8.9c-2-4.1-4.3-8.8-4.4-13.4
				c-0.1-1.8,0.1-3.8,0.5-6l0.2-1.1h7l0.3,0.9c0.6,2.1,2.5,3.6,4.7,3.6c2.2,0,4.1-1.5,4.7-3.6l0.3-0.9h14.6l0.2,1.1
				c0.4,2.3,0.5,4.3,0.5,6c-0.1,4.6-2.4,9.3-4.4,13.4c-1.6,3.2-3,6.2-3.3,8.9c-0.5,4.9,0.1,11.5,2.1,20L305.2,346z"/>
			<path class="st6" d="M317.1,272.3c0-5.4-4.4-9.9-9.9-9.9h-1.4c-2-4.3-6.4-7.2-11.3-7.2c-4.9,0-9.3,2.9-11.3,7.2h-1.4
				c-5.4,0-9.9,4.4-9.9,9.9c0,3.9,2.3,7.2,5.5,8.9c-0.7,1.8-4.8,12.6-4.6,21.2c0.2,5.6,2.7,10.8,4.9,15.3c1.4,2.8,2.7,5.5,2.9,7.4
				c0.8,6.9-1.5,16.5-2.3,19.7c-0.3,1.4,0,2.9,0.9,4.1c0.9,1.2,2.3,1.8,3.8,1.8H305c1.5,0,2.9-0.7,3.8-1.8c0.9-1.2,1.3-2.7,0.9-4.1
				c-0.8-3.2-3-12.8-2.3-19.7c0.2-1.9,1.5-4.5,2.9-7.4c2.2-4.5,4.7-9.7,4.9-15.3c0.2-8.1-3.4-18.2-4.4-20.8
				C314.4,280.1,317.1,276.5,317.1,272.3 M309.2,302.1c-0.1,4.3-2.3,8.9-4.3,12.9c-1.6,3.3-3.1,6.4-3.4,9.3
				c-0.7,6.6,0.8,14.5,2.1,20.4h-19.1c1.3-5.9,2.8-13.8,2.1-20.4c-0.3-2.9-1.8-6-3.4-9.3c-1.9-4-4.2-8.5-4.3-12.9
				c-0.1-1.8,0.1-3.8,0.5-5.8h5c0.7,2.6,3.1,4.5,5.9,4.5c2.8,0,5.2-1.9,5.9-4.5h12.6C309.1,298.3,309.3,300.3,309.2,302.1
				 M284.1,292.9H280c0.8-3.2,1.7-6.2,2.4-8h1.7V292.9z M296.4,285h9.3c0.6,1.8,1.6,4.7,2.4,8h-11.7V285z M307.2,278.8h-10.8v-1.6
				c0-0.9-0.8-1.7-1.7-1.7c-0.9,0-1.7,0.8-1.7,1.7v17.5c0,1.5-1.2,2.8-2.8,2.8c-1.5,0-2.8-1.2-2.8-2.8v-17.5c0-0.9-0.8-1.7-1.7-1.7
				c-0.9,0-1.7,0.8-1.7,1.7v1.6h-2.2c-3.6,0-6.5-2.9-6.5-6.5c0-3.6,2.9-6.5,6.5-6.5h3.8c0.8-4.1,4.5-7.2,8.8-7.2
				c4.4,0,8,3.1,8.8,7.2h3.8c3.6,0,6.5,2.9,6.5,6.5C313.7,275.9,310.8,278.8,307.2,278.8"/>
		</g>
	</g>
</g>
<path d="M146.6,101.8c3.2,0.2,7,0.4,10.7,0.8c2,0.2,3.9,1,3.9,3.6c0,5.4-0.1,10.8-0.1,16.6c1,0.2,2.7,0.7,4.3,0.9
	c2.5,0.3,3.6,1.5,3.7,4c0.8,10.8-0.1,21.4-5.8,30.9c-3.9,6.6-9.7,10.6-17.2,12.6c-6.9,1.9-13.9,2.1-21.2,1.5
	c-0.2,3.1-0.3,6.2-0.5,9.3c-0.1,1,0.1,2-0.2,3c-0.4,1.9-1.5,3.2-3.6,2.9c-2-0.2-3.5-1-3.5-3.4c0.1-3.1,0.1-6.1,0.2-9.2
	c0-1,0-2.1,0-3.2c-7,0-13.8-0.5-20.3-2.6c-11.5-3.8-18.2-11.7-20.8-23.3c-1.5-6.7-1.4-13.4-0.8-20.1c0.4-4.7,2-6.2,6.7-6.4
	c3.1-0.1,3-0.3,2.9-3.3c-0.1-4.2-0.1-8.4,0.4-12.6c0.4-3.8,1.4-3.9,6.6-4.2c2.7-0.1,5.4,0.3,8.1,0.3c0.5,0,1.4-0.5,1.5-0.9
	c1.9-9,7.1-16,13.8-21.9c1.9-1.7,3.8-3.5,5.9-4.9c3.4-2.4,3.7-2.1,6.9,0.5c6.2,5,11.1,11,14.3,18.3C144,94.4,145.2,98,146.6,101.8z
	 M116.6,165.4c1.1-6.4,0.8-12.2-0.5-17.7c-1.9-8.3-6.2-14.8-14.9-17.6c-6-2-12.1-2.6-19.1-2.5c0.2,4.9,0,9.8,0.6,14.6
	c1.3,9.9,6.3,17.4,16.3,20.2C104.7,163.9,110.7,164.4,116.6,165.4z M161,130.4c-5.8,0.4-11.4,0.4-16.8,1.3
	c-7.8,1.2-13.3,5.7-16.4,13.1c-2.6,6-2.3,12.3-2.7,18.5c-0.1,1.7,1,1.9,2.3,1.9c4.3-0.1,8.6,0,12.8-0.6c6.1-0.8,11.8-3.2,15.5-8.3
	C161,148.9,162.1,140.3,161,130.4z M122.9,114.8c3.2-4.8,7-8.3,11.9-10.3c3.5-1.4,3.6-1.4,2.8-5.1c-0.2-0.8-0.5-1.6-0.8-2.4
	c-2.6-7-7-12.7-12.6-17.7c-5.6,4.6-10.5,9.7-13.7,16.2c-1,2-1.5,4.3-1.6,6.4c0,0.6,2.4,1.3,3.7,1.9c0.4,0.2,0.8,0.4,1.1,0.6
	C117.3,107.2,120.9,110,122.9,114.8z M154.1,110.1c-17.7-2-27.4,5-27.8,22.6c1.8-1.4,3.4-2.8,5.2-4c5.4-3.7,11.6-5.2,17.9-5.7
	c1.9-0.2,3-0.4,3.3-2.4C153.1,117.1,153.6,113.6,154.1,110.1z M117.6,132.5c0.2-0.9,0.5-1.4,0.5-1.9c-0.2-3-0.3-6.1-0.9-9.1
	c-0.7-3.8-2.6-7.3-5.8-9.4c-5.3-3.5-11.3-4.6-17.6-4.8c-1.5,0-1.9,0.6-1.9,1.8c0,2.1,0,4.1,0.1,6.2c0.3,5,0.2,4.7,4.5,5
	c0.8,0.1,1.6,0.4,2.4,0.6C106.1,122.8,112.6,125.8,117.6,132.5z"/>
<g>
	<rect x="415.3" y="89.5" class="st8" width="671.8" height="289.5"/>
	<path d="M428.8,166c-2.8-2.1-5.1-4.8-6.9-7.9c-1.8-3.2-3.2-6.6-4.2-10.1c-1-3.6-1.7-7.2-2-11.1c-0.3-3.8-0.5-7.4-0.4-10.9
		c0.9-2.6,1.9-5,3.2-7.2c1.3-2.2,2.6-4.2,4.2-6.2c1.5-2,3.2-3.9,4.8-5.6c1.7-1.8,3.3-3.6,5-5.4c0.6,0,1.1,0.1,1.6,0.4
		c0.4-1.1,1-2,1.7-2.7c0.8-0.8,1.6-1.5,2.5-2.1c0.9-0.6,1.7-1.3,2.6-1.9c0.9-0.6,1.6-1.4,2.2-2.2c2.4-0.6,4.6-1.4,6.4-2.5
		c1.9-1.1,3.7-2.2,5.4-3.5c1.7-1.3,3.5-2.4,5.3-3.5c1.8-1.1,4-1.9,6.4-2.5c0.9-1,2-1.8,3.3-2.5c1.3-0.7,2.6-1.3,3.9-1.9
		s2.6-1.2,3.8-1.9c1.2-0.7,2.2-1.6,3-2.7c0.6,0.8,1.4,1,2.5,0.8c1.1-0.2,2-0.5,2.9-0.8c0.6-0.1,1.1,0,1.4,0.3
		c0.4,0.3,0.7,0.6,1.1,0.9c0.3,0.3,0.6,0.6,0.9,0.7c0.2,0.1,0.5-0.2,0.8-0.9c0.8,0.1,1,0.4,0.7,1c-0.3,0.6-0.6,1-0.7,1.2
		c1-0.2,1.8,0,2.4,0.5c0.6,0.5,1.6,0.9,3,1.1c0.5,0.5,0.6,0.9,0.4,1.2c-0.2,0.3-0.3,0.8-0.4,1.4c3.5,1.1,5.7,2.7,6.6,5
		c1,2.3,1.1,4.6,0.3,7.1c-0.8,2.5-2.2,4.7-4.3,6.8c-2.1,2.1-4.4,3.4-6.9,4.1c-3,0.8-5.8,1.5-8.3,2.3c-2.6,0.8-5,1.6-7.4,2.6
		c-2.4,1-4.6,2.1-6.6,3.4c-2.1,1.3-3.9,2.8-5.4,4.6c-2.7,0.8-5.1,1.8-7.3,3.2c-2.2,1.4-4.2,2.8-6.1,4.5c-1.9,1.6-3.7,3.3-5.4,5.1
		c-1.7,1.8-3.5,3.5-5.2,5.3c0,1.6-0.3,2.9-0.9,3.8s-1.2,1.7-1.9,2.6c0.2,1.8,0.6,3.4,1.2,4.7c0.6,1.3,1.3,2.6,2,4
		c7.7,2.3,15.9,3.7,24.5,4.3c8.6,0.5,17.2,0.8,25.7,0.9c0.9,1.2,1.9,2.2,3,3.3c1.1,1,2.1,2,3,3.1c0.9,1.1,1.6,2.3,2.2,3.7
		c0.5,1.4,0.7,3.1,0.4,5c-1.6,1.6-3.4,3.2-5.3,4.7c-1.9,1.5-3.9,3-5.8,4.4c-0.9,0.1-1.9,0.1-3.1,0c-1.2-0.1-2.5-0.1-3.8-0.1
		s-2.6,0.1-3.9,0.2s-2.5,0.5-3.7,0.9c-6.1-0.2-12.3-0.9-18.6-2.2s-12.2-2.9-17.6-4.7c-1.1-1.3-2.2-2.4-3.3-3.5
		C432.2,167.3,430.7,166.5,428.8,166z"/>
	<path d="M590.1,135.2c-0.1,1.2,0,2.3,0.3,3.3c0.3,1.1,0.7,2.1,1.1,3.1s0.8,2,1.2,3.1c0.4,1.1,0.7,2.1,0.9,3.2
		c0.2,1.4,0.2,2.8,0,4.4c-0.2,1.6-0.5,3.1-1,4.6c-0.5,1.5-1.1,2.8-1.9,4c-0.8,1.2-1.7,2.1-2.7,2.7c-1.4,1.7-3,3.1-4.9,4
		c-1.9,1-3.7,2.1-5.3,3.5c-1.1,0.7-2.2,1.2-3.5,1.4s-2.6,0.6-4,0.9c-1.1,0.6-2.3,1.2-3.8,1.8c-1.4,0.6-2.9,1.2-4.5,1.7
		c-1.5,0.5-3.1,0.9-4.6,1.2c-1.5,0.2-2.9,0.3-4,0.2c-2.9,1.1-5.7,1.8-8.5,2.1c-2.7,0.3-6,0.1-9.6-0.7c-3.5,0.5-6.7,0.3-9.6-0.4
		c-2.9-0.8-5.5-2-7.8-3.7c-2.3-1.7-4.2-3.7-5.9-6.1c-1.7-2.4-3.1-4.8-4.1-7.4c-0.8-5.5-0.6-10.5,0.6-15s2.8-8.6,5-12.4
		c2.2-3.8,4.6-7.3,7.4-10.6c2.8-3.2,5.5-6.4,8.1-9.5c0.6,0.2,1,0.2,1.4-0.1c0.3-0.2,0.7-0.6,0.9-1s0.6-0.8,0.9-1.2
		c0.3-0.4,0.7-0.6,1.2-0.7c0.7-1.4,1.7-2.5,3-3.3s2.3-1.8,3.1-3.1c0.9-0.2,1.6-0.5,2.2-0.9c0.6-0.4,1.1-0.8,1.7-1.3
		c0.5-0.5,1.1-0.9,1.7-1.4s1.3-0.7,2-0.9v-1.6c1.7-0.8,3-1.7,3.8-2.7c0.8-1,1.8-2.2,3-3.7c0.9-0.1,1.6-0.1,2.1-0.1
		c0.5,0,1.3-0.1,2.4-0.3c0.8-1.3,1.5-2.4,2.1-3c0.6-0.7,1.6-1.4,2.8-2.2c1.2,0.6,2.4,1,3.8,1.2c1.4,0.2,2.6,0.8,3.7,1.9
		c0.1,1,0.4,1.7,0.9,2.2c0.5,0.5,1,1,1.6,1.4s1.1,0.9,1.7,1.4c0.5,0.5,0.9,1.2,1.1,2c0.4,0.1,0.7,0,0.8-0.1c0.1-0.2,0.4-0.2,0.8-0.1
		c0.3,1.4,0.6,2.2,1,2.7c0.4,0.4,0.8,1.3,1.2,2.5c-0.5,1-0.8,2-1.1,3c-0.2,1-0.8,1.8-1.8,2.2c-0.1,0.7,0.1,1,0.6,1.1
		c0.5,0,0.8,0.3,0.9,0.8c0.1,0.9,0,1.5-0.4,1.9c2.3,3.8,4.4,7.7,6.2,11.9C585.7,127.5,587.8,131.4,590.1,135.2z M572,148.9
		c0.4-1.1,0.9-1.9,1.5-2.6c0.6-0.7,1-1.7,1.1-3c-0.5-0.8-0.8-1.4-0.9-1.8c-0.1-0.4-0.1-1.1-0.1-2.1c-2.1-3-4-6.2-5.5-9.6
		c-1.5-3.4-3.3-6.6-5.2-9.6c-0.2,0.4-0.5,0.8-1,1.2c-0.5,0.4-1,0.3-1.6-0.3c-0.2,0.8-0.5,1.3-1,1.7c-0.5,0.3-1,0.5-1.6,0.4
		c-0.6,0-1.2-0.2-1.8-0.4c-0.6-0.2-1.2-0.6-1.7-0.9c-2.8,2.2-5.6,4.4-8.4,6.5c-2.8,2.1-5.3,4.6-7.5,7.4c-0.4,0.2-0.6,0.3-0.7,0.2
		c-0.1,0-0.4,0-0.9,0.2c-0.8,1.8-1.7,3.5-2.8,5c-1.1,1.5-2.2,3-3.3,4.6c-1.1,1.5-2,3.2-2.7,4.9c-0.8,1.7-1.2,3.8-1.3,6.1
		c1.6,1.4,3.6,2.2,5.8,2.5c2.2,0.3,4.5,0.3,6.9,0.1c2.4-0.2,4.7-0.5,6.9-0.9c2.3-0.4,4.4-0.7,6.3-0.7c4-1,7.5-2.2,10.4-3.8
		S568.8,150.6,572,148.9z"/>
	<path d="M628.5,152.2c-0.9,0.2-1.5,0.7-1.9,1.5c-0.4,0.8-0.7,1.7-1.1,2.5c-0.3,0.9-0.7,1.7-1,2.4c-0.3,0.7-0.8,1.1-1.5,1.1
		c-0.1,0.8-0.4,1.4-0.8,2s-0.8,1.2-1.2,1.8c-0.4,0.6-0.7,1.3-0.9,2c-0.2,0.7-0.1,1.6,0.3,2.5c-0.8,0.6-1.3,1.4-1.4,2.5
		c-0.2,1.1-0.4,2.1-0.7,3c-0.2,1-0.7,1.8-1.2,2.5c-0.6,0.7-1.6,1-3.2,0.9c-0.3,0.4-0.3,0.6-0.1,0.7c0.2,0.1,0.3,0.4,0.4,1
		c-1.1-0.2-1.9-0.1-2.4,0.2c-0.5,0.3-1.2,0.6-2,0.7c-1.8-0.6-3.3-1.6-4.6-3c-1.2-1.4-2.3-3.1-3.2-4.8c-0.9-1.8-1.7-3.6-2.5-5.4
		c-0.7-1.8-1.4-3.4-2.1-4.8c0.3-1.1,0.3-2.1,0.1-3.1c-0.2-1-0.5-1.9-1-2.5c4.7-10,9.9-20.7,15.5-32.1c5.6-11.4,10.9-22.6,15.9-33.7
		c2.2,0.9,4.4,1.9,6.6,3c2.2,1.1,4.1,2.4,5.9,3.8c1.8,1.4,3.3,3.1,4.6,5c1.3,1.9,2.1,4,2.5,6.3c-0.2,0.6-0.4,0.8-0.7,0.7
		c-0.2-0.1-0.5-0.1-0.7,0.2c0.4,0.5,0.6,0.8,0.7,1c0,0.2,0,0.4,0,0.6c0,0.2-0.1,0.5-0.1,0.8c0,0.3,0.1,0.8,0.4,1.4
		c-0.4-0.1-0.7,0-0.8,0.1c-0.1,0.2-0.5,0.2-0.9,0c0.4,1.1,0.5,1.9,0.4,2.6c-0.1,0.7-0.4,1.3-0.7,1.8c-0.3,0.5-0.5,1.1-0.7,1.7
		c-0.2,0.6-0.1,1.4,0.1,2.4c-0.3,0-0.5,0.1-0.7,0.2s-0.3,0.3-0.4,0.4c-0.1,0.1-0.2,0.3-0.4,0.4s-0.4,0.2-0.7,0.1
		c0.3,2.1,0.4,4.2,0.3,6.4c-0.1,2.1-0.2,4.3-0.2,6.4c0,2.2,0,4.4,0.1,6.8c0.1,2.4,0.4,4.8,1,7.3c3.5-2,6.2-4.6,8.3-7.8
		c2.1-3.2,3.8-6.7,5.1-10.7c1.3-3.9,2.3-8.2,3-12.7c0.7-4.5,1.4-9.2,2.2-13.9c0.9-0.9,1.5-1.9,2-3.2c0.5-1.3,0.9-2.6,1.3-4
		c0.4-1.4,0.8-2.8,1.2-4.2c0.4-1.4,0.9-2.7,1.4-3.8c1.4,0.2,2.7,0.7,3.7,1.4s2,1.5,2.8,2.3c0.9,0.8,1.8,1.6,2.7,2.3
		c1,0.7,2.2,1.2,3.6,1.4c1.2,1.6,2.2,3.2,3.2,4.8c1,1.5,1.6,3.2,1.9,4.9c-0.5,0.8-0.8,1.6-1.1,2.6c-0.2,1-0.5,1.9-0.8,2.9
		c-0.3,1-0.7,1.9-1.2,2.7c-0.5,0.8-1.2,1.5-2,2.1c-0.3,2.5-0.7,4.8-1.1,6.9c-0.4,2.1-0.9,4.1-1.3,6.1c-0.4,2-0.8,4.1-1.1,6.3
		s-0.4,4.6-0.3,7.2c-0.8,2.2-1.6,4.6-2.5,7.1c-0.9,2.5-1.5,4.8-2,6.8c-1.5,1.3-2.7,2.7-3.6,4.5s-1.8,3.5-2.7,5.2
		c-0.4,0.4-0.6,0.5-0.7,0.3c-0.1-0.2-0.4-0.3-1-0.4c0.1,0.4,0.1,0.7,0,0.9c-0.1,0.2-0.2,0.4-0.4,0.5s-0.2,0.4-0.3,0.7
		c0,0.3,0,0.7,0.2,1.2c-1.4,0.6-2.6,1.4-3.6,2.5c-1.1,1.1-2.2,2-3.4,2.9c-1.2,0.9-2.7,1.4-4.3,1.7c-1.7,0.3-3.9,0-6.6-1
		c-4-2.9-7.4-6.2-10.5-10S630.4,157.4,628.5,152.2z"/>
	<path d="M712.1,152.2c-0.9,0.2-1.5,0.7-1.9,1.5c-0.4,0.8-0.7,1.7-1.1,2.5c-0.3,0.9-0.7,1.7-1,2.4c-0.3,0.7-0.8,1.1-1.5,1.1
		c-0.1,0.8-0.4,1.4-0.8,2s-0.8,1.2-1.2,1.8c-0.4,0.6-0.7,1.3-0.9,2c-0.2,0.7-0.1,1.6,0.3,2.5c-0.8,0.6-1.3,1.4-1.4,2.5
		c-0.2,1.1-0.4,2.1-0.7,3c-0.2,1-0.7,1.8-1.2,2.5c-0.6,0.7-1.6,1-3.2,0.9c-0.3,0.4-0.3,0.6-0.1,0.7c0.2,0.1,0.3,0.4,0.4,1
		c-1.1-0.2-1.9-0.1-2.4,0.2c-0.5,0.3-1.2,0.6-2,0.7c-1.8-0.6-3.3-1.6-4.6-3c-1.2-1.4-2.3-3.1-3.2-4.8c-0.9-1.8-1.7-3.6-2.5-5.4
		c-0.7-1.8-1.4-3.4-2.1-4.8c0.3-1.1,0.3-2.1,0.1-3.1c-0.2-1-0.5-1.9-1-2.5c4.7-10,9.9-20.7,15.5-32.1c5.6-11.4,10.9-22.6,15.9-33.7
		c2.2,0.9,4.4,1.9,6.6,3c2.2,1.1,4.1,2.4,5.9,3.8c1.8,1.4,3.3,3.1,4.6,5c1.3,1.9,2.1,4,2.5,6.3c-0.2,0.6-0.4,0.8-0.7,0.7
		c-0.2-0.1-0.5-0.1-0.7,0.2c0.4,0.5,0.6,0.8,0.7,1c0,0.2,0,0.4,0,0.6c0,0.2-0.1,0.5-0.1,0.8c0,0.3,0.1,0.8,0.4,1.4
		c-0.4-0.1-0.7,0-0.8,0.1c-0.1,0.2-0.5,0.2-0.9,0c0.4,1.1,0.5,1.9,0.4,2.6c-0.1,0.7-0.4,1.3-0.7,1.8c-0.3,0.5-0.5,1.1-0.7,1.7
		c-0.2,0.6-0.1,1.4,0.1,2.4c-0.3,0-0.5,0.1-0.7,0.2s-0.3,0.3-0.4,0.4c-0.1,0.1-0.2,0.3-0.4,0.4s-0.4,0.2-0.7,0.1
		c0.3,2.1,0.4,4.2,0.3,6.4c-0.1,2.1-0.2,4.3-0.2,6.4c0,2.2,0,4.4,0.1,6.8c0.1,2.4,0.4,4.8,1,7.3c3.5-2,6.2-4.6,8.3-7.8
		c2.1-3.2,3.8-6.7,5.1-10.7c1.3-3.9,2.3-8.2,3-12.7c0.7-4.5,1.4-9.2,2.2-13.9c0.9-0.9,1.5-1.9,2-3.2c0.5-1.3,0.9-2.6,1.3-4
		c0.4-1.4,0.8-2.8,1.2-4.2c0.4-1.4,0.9-2.7,1.4-3.8c1.4,0.2,2.7,0.7,3.7,1.4s2,1.5,2.8,2.3c0.9,0.8,1.8,1.6,2.7,2.3
		c1,0.7,2.2,1.2,3.6,1.4c1.2,1.6,2.2,3.2,3.2,4.8c1,1.5,1.6,3.2,1.9,4.9c-0.5,0.8-0.8,1.6-1.1,2.6c-0.2,1-0.5,1.9-0.8,2.9
		c-0.3,1-0.7,1.9-1.2,2.7c-0.5,0.8-1.2,1.5-2,2.1c-0.3,2.5-0.7,4.8-1.1,6.9c-0.4,2.1-0.9,4.1-1.3,6.1c-0.4,2-0.8,4.1-1.1,6.3
		s-0.4,4.6-0.3,7.2c-0.8,2.2-1.6,4.6-2.5,7.1c-0.9,2.5-1.5,4.8-2,6.8c-1.5,1.3-2.7,2.7-3.6,4.5s-1.8,3.5-2.7,5.2
		c-0.4,0.4-0.6,0.5-0.7,0.3c-0.1-0.2-0.4-0.3-1-0.4c0.1,0.4,0.1,0.7,0,0.9c-0.1,0.2-0.2,0.4-0.4,0.5s-0.2,0.4-0.3,0.7
		c0,0.3,0,0.7,0.2,1.2c-1.4,0.6-2.6,1.4-3.6,2.5c-1.1,1.1-2.2,2-3.4,2.9c-1.2,0.9-2.7,1.4-4.3,1.7c-1.7,0.3-3.9,0-6.6-1
		c-4-2.9-7.4-6.2-10.5-10S714,157.4,712.1,152.2z"/>
	<path d="M846.6,97.2c0.1,0.7,0.1,1.2,0.1,1.5c0,0.3-0.1,0.7-0.1,0.9c0,0.3-0.1,0.6-0.1,0.9c0,0.3,0.1,0.8,0.3,1.5
		c-2,3.3-4.4,5.5-7,6.7c-2.7,1.2-5.5,2.1-8.6,2.6c-3.1,0.5-6.2,1.1-9.5,1.7c-3.2,0.6-6.4,1.8-9.6,3.8c-1.3-0.5-2.4-0.5-3.4,0
		c-1,0.5-2.5,0.6-4.4,0.4c-0.6,0.6-1.3,1-2.2,1.2c-0.9,0.2-1.7,0.5-2.6,0.8c0.4,0.9,0.6,1.8,0.5,2.7c0,0.9,0.1,1.7,0.4,2.2
		c3.4,0.3,7.1,0.2,11.2-0.1c4.1-0.4,8.1-0.6,12.1-0.7c0.1,0.5,0,0.8-0.1,0.9c-0.2,0.1-0.2,0.4-0.1,0.8c0.7,0.5,1.3,1.1,2,1.8
		c0.7,0.7,1.3,1.4,2,2.1c0.7,0.7,1.4,1.2,2.1,1.7s1.6,0.6,2.5,0.5c0.4,0.8,0.7,1.6,0.8,2.5c0.1,0.9,0,1.9-0.4,2.8
		c-1.5,1.1-3.1,2.1-4.6,3.3c-1.5,1.1-3.2,2.1-4.8,3c-1.7,0.9-3.5,1.6-5.3,2.1c-1.9,0.5-4,0.7-6.3,0.7c-0.5,0-0.8,0-1.1,0
		c-0.2,0-0.6-0.1-0.9-0.4c-0.8,0.5-1.9,0.6-3.3,0.4c-1.4-0.2-2.5,0-3.3,0.4c-1.1-0.5-2.3-0.7-3.8-0.7c-1.5,0-2.8-0.1-4-0.5
		c-1.5,2-2.9,4.2-4.2,6.5c-1.3,2.3-2.4,4.8-3.3,7.4c3.3,0.5,6,0.7,8.2,0.6c2.2-0.1,4.2-0.3,6.1-0.5c1.9-0.2,3.9-0.5,5.9-0.7
		c2-0.2,4.6-0.3,7.7-0.2c1.9-1.1,4.2-1.8,6.9-2.1c2.6-0.3,5.1-0.9,7.3-1.7c0.8,0.3,1.4,0.8,2,1.5s1.1,1.4,1.7,2
		c0.5,0.6,1.1,1.2,1.7,1.7c0.6,0.5,1.3,0.7,2.2,0.6c0.4,0.4,0.7,0.8,0.8,1.4c0.1,0.5,0.3,1,0.4,1.5c0.1,0.5,0.3,0.9,0.5,1.2
		c0.2,0.3,0.7,0.5,1.2,0.4c-1.4,3.2-3.1,5.6-5,7.3c-1.9,1.7-4,3-6.4,3.8c-2.4,0.9-5.1,1.5-8,2c-2.9,0.5-6.2,1.1-9.8,1.7
		c-0.9,0.2-1.6,0.2-2.2-0.1c-0.6-0.2-1.3-0.4-2-0.4c-2.2,0.5-4.9,0.9-7.9,1.3c-3.1,0.4-6.2,0.5-9.4,0.4c-3.2-0.1-6.2-0.5-9.1-1.2
		s-5.3-2-7.1-3.8c-0.8-0.7-1.3-1.5-1.5-2.4c-0.2-0.9-0.9-1.6-2-2.1c-0.1-1.3-0.3-2.6-0.6-4.2c-0.3-1.5-0.6-3.2-0.9-4.8
		c-0.3-1.7-0.5-3.3-0.7-5c-0.1-1.6-0.1-3.1,0.2-4.5c0.3-1.4,0.9-2.7,1.8-3.9c0.9-1.2,1.2-2.4,0.9-3.8c0.5-0.1,0.8-0.4,0.9-0.8
		c0.1-0.4,0.5-0.6,1.2-0.5c0.6-1.7,1.2-3.4,1.9-4.9c0.7-1.5,1.4-3,2.1-4.5s1.4-2.9,2.2-4.4c0.7-1.5,1.4-3.2,2.1-5
		c-1.4-1.3-2.3-2.6-3-4.1c-0.6-1.5-1.1-3-1.4-4.5c-0.3-1.5-0.5-3-0.7-4.6c-0.2-1.6-0.5-3.2-1-4.8c1-1.4,2.1-2.6,3.5-3.5
		c1.4-0.9,2.9-1.7,4.6-2.2c1.6-0.6,3.4-1.1,5.3-1.4c1.9-0.4,4-0.8,6.1-1.3c3.9-1.3,7.3-2.2,10.3-2.9c3-0.7,6-1.2,9-1.7
		c2.9-0.4,6-0.8,9.2-1.2c3.2-0.4,6.8-1,10.8-1.7c0.9,0.9,1.7,1.3,2.5,1.3c0.4-0.9,0.8-1.1,1.4-0.8c0.5,0.3,0.7,0.1,0.7-0.8
		c1,1.6,2.2,3,3.7,4.1C843.1,95.5,844.8,96.4,846.6,97.2z"/>
	<path d="M901.8,178.8c-1.5,0.1-3.4,0-5.7-0.1c-2.3-0.2-4.4,0.1-6.3,1c-5.1-0.2-10.3-0.8-15.6-1.9c-5.3-1.1-10.2-2.4-14.6-3.9
		c-1-1.1-1.9-2-2.9-3c-1-0.9-2.3-1.6-3.9-2c-2.3-1.8-4.2-4.1-5.6-6.7c-1.4-2.6-2.6-5.5-3.5-8.5c-0.9-3-1.4-6-1.7-9.2
		c-0.3-3.1-0.4-6.1-0.3-9c1.4-4.3,3.5-8.1,6.1-11.2c2.6-3.1,5.4-6.2,8.2-9.3c1.3-0.6,2.2-1.2,2.8-1.8c0.6-0.6,1.3-1.2,2-1.7
		c0.7-0.5,1.4-1.1,2.2-1.6c0.7-0.5,1.4-1.2,2-2c2-0.5,3.8-1.2,5.3-2.1c1.5-0.9,3-1.9,4.4-2.9s2.9-2,4.5-2.8c1.5-0.9,3.3-1.5,5.3-2
		c0.8-0.9,1.7-1.6,2.7-2.1c1.1-0.5,2.1-1.1,3.3-1.6c1.1-0.5,2.2-1.1,3.2-1.7s1.8-1.3,2.4-2.3c0.5,0.8,1.2,1,2,0.8
		c0.9-0.2,1.7-0.5,2.5-0.8c0.5-0.1,0.9,0,1.2,0.3c0.3,0.3,0.7,0.6,0.9,0.9s0.6,0.5,0.8,0.5c0.2,0,0.5-0.2,0.7-0.7
		c0.5,0,0.6,0.2,0.4,0.7c-0.2,0.5-0.3,0.8-0.4,1c0.8-0.1,1.4,0.1,2,0.5c0.5,0.4,1.4,0.7,2.5,0.8c0.4,0.5,0.5,0.8,0.3,1.1
		c-0.2,0.2-0.3,0.7-0.3,1.2c2.9,0.9,4.7,2.2,5.5,4.1c0.8,1.9,0.8,3.8,0.1,5.9c-0.7,2-1.9,3.9-3.6,5.6s-3.6,2.9-5.6,3.5
		c-4.6,1.3-9,2.6-13.1,4.1c-4.1,1.5-7.4,3.7-10,6.6c-2.3,0.7-4.4,1.6-6.1,2.7c-1.8,1.1-3.5,2.4-5.1,3.8c-1.6,1.4-3.1,2.8-4.5,4.3
		c-1.4,1.5-2.9,3-4.4,4.4c0.1,1.4-0.1,2.4-0.7,3.1c-0.5,0.7-1,1.5-1.5,2.2c0.2,1.4,0.5,2.7,1,3.8c0.5,1.1,1,2.2,1.6,3.3
		c6.4,1.9,13.1,3.1,20.3,3.6c7.2,0.5,14.4,0.8,21.6,0.9c0.7,1,1.5,1.9,2.4,2.7c0.9,0.8,1.8,1.7,2.5,2.6c0.8,0.9,1.4,1.9,1.9,3
		c0.5,1.1,0.6,2.5,0.3,4.1c-1.4,1.4-2.8,2.8-4.5,4C905.1,176.4,903.5,177.6,901.8,178.8z"/>
	<path d="M1000,109c-2.4,0-5,0.2-7.8,0.5c-2.8,0.3-5.5,0.7-8.2,1.1c-1.9,0.3-3.8,0.5-5.6,0.7c-1.8,0.2-3.4,0.3-4.8,0.4
		c-0.7,2.1-1.4,4-2,5.6c-0.7,1.6-1.4,3.2-2.2,4.8c-0.8,1.6-1.5,3.3-2.1,5c-0.6,1.7-1.2,3.5-1.8,5.4c-1,1.5-1.8,3-2.4,4.3
		c-0.6,1.3-1.1,2.8-1.5,4.4c-1.2,1.4-2,3-2.6,4.6s-1,3-1.3,4.1l-0.6,1.7c-0.6,0.6-0.9,1-1,1.4c-0.1,0.3-0.3,0.7-0.7,0.9
		c-0.1,1.1-0.4,2.1-1,3.2c-0.2,0.5-0.3,0.9-0.4,1.4c-0.1,0.4-0.1,0.7-0.1,0.9c0,1-0.2,1.6-0.7,1.9c0.1,0.5,0.1,1,0,1.5
		c-0.1,0.5-0.2,1-0.3,1.5c-0.3,1.2-0.4,2.1-0.3,2.7c0.3,0.4,0.6,0.7,0.8,1c0.2,0.3,0.4,0.7,0.5,1.2c0.6,0.4,1,0.6,1.3,0.7
		c0.4,0.3,1,0.6,1.7,1l1.3,1.4c0.5,2.8,0,5-1.3,6.6c-1.4,1.8-3.9,2.7-7.4,2.7h-1.7c-0.5-0.5-0.8-0.9-0.9-1.2
		c-0.8-0.3-1.4-0.5-1.9-0.7c-0.5-0.2-0.9-0.6-1.3-1.2c-1.3-0.6-2.3-1.1-3-1.4l-1.3-0.7c0-1.1,0-1.6,0-1.7c-0.7-0.9-1.2-1.8-1.5-2.9
		c-0.3-1.1-0.6-2.1-0.8-3.2c-0.2-0.9-0.4-1.7-0.7-2.5c-0.2-0.8-0.6-1.4-0.9-2c-0.2-5.6,0.3-10.3,1.6-14.2c1.3-3.9,2.6-7.6,3.9-11.1
		c0.8-1.9,1.5-3.9,2.3-5.9c0.8-2,1.4-4,2-6.1l1.3-1.4c0.7-1.5,1.2-2.8,1.7-3.8s0.9-2,1.4-3.1c0.3-0.7,0.6-1.3,0.8-2
		c0.2-0.6,0.5-1.2,0.7-1.7c-0.6,0-1.1,0-1.6,0.1c-0.5,0-1,0.1-1.4,0.2c-0.6,0.1-1.1,0.2-1.6,0.2c-0.5,0-1,0.1-1.4,0.1
		c-0.7,0-1.2,0-1.4-0.1c-1.1,0.5-2.2,0.7-3.5,0.7h-1.4c-0.3,0-0.6,0-0.8-0.1c-0.2,0-0.5-0.1-0.7-0.1c-1,0-1.7,0.1-2.3,0.4
		c-1.2,0-2.3,0-3.3,0H930c-0.2,0-0.4,0-0.7,0.1c-0.3,0-0.5,0.1-0.7,0.1c-0.7,0-1.4-0.1-2.2-0.2c-0.8-0.1-1.6-0.5-2.5-0.9
		c-1.2-1.5-1.9-2.4-2.3-2.5l-1.3-1.7c-0.1-0.6-0.2-1.1-0.4-1.7c-0.2-0.5-0.4-1.1-0.6-1.8c-0.4-1-0.7-2-1.1-3.1
		c-0.3-1.1-0.5-2.4-0.5-4c0.1-0.8,0.3-1.3,0.6-1.7c0.3-0.4,0.5-0.7,0.7-1l0.4-2.2l1.9,0.1h4c3.1,0,6.2-0.1,9.4-0.4
		c3.2-0.2,6.5-0.5,9.8-0.8c1.9-0.2,3.9-0.4,5.9-0.6c2-0.2,4-0.4,6.1-0.6c0.4-0.9,0.8-1.7,1.2-2.5l1.4-0.7c1.7-0.1,3,0.1,3.7,0.7
		c0.7,0.5,1.3,1,1.8,1.5c2.1-0.2,4.3-0.4,6.4-0.7c2.2-0.2,4.4-0.6,6.6-0.9c3.3-0.5,6.6-0.9,9.9-1.3c3.3-0.4,6.5-0.6,9.6-0.6
		c1.3,0,2.6,0,3.9,0.1c1.3,0.1,2.4,0.2,3.5,0.4l1.4,1c0.3,0.6,0.7,1.1,1.2,1.6c0.5,0.5,1.1,1,1.7,1.4c1.2,1.1,2.3,2.3,3.5,3.8
		s1.6,3.6,1.3,6.4c-0.8,1.2-1.4,1.8-1.7,2l-1.3,1.7l-1.4-0.1c-0.6,0-1.1,0.1-1.6,0.2c-0.5,0.1-1,0.3-1.4,0.5
		c-0.4,0.2-0.8,0.4-1.2,0.5c-0.4,0.1-0.8,0.3-1.3,0.4c-0.9,0-1.6,0-2.1-0.1C1001.1,109.1,1000.5,109,1000,109z"/>
	<path d="M427.3,286.3c-4-1.6-7.4-4-10-6.9c-2.6-3-4.8-6.5-6.4-10.6c1-2.6,2.5-4.8,4.6-6.6c2.1-1.8,4.5-3.3,7.2-4.6
		c2.6-1.3,5.5-2.3,8.5-3c3-0.8,5.9-1.4,8.7-2c0.6,0.2,0.9,0.2,0.9,0c0-0.2,0.2-0.1,0.7,0.3c3.5-1.1,7.5-2.1,12-3.1
		c4.5-1,9.3-1.4,14.5-1.1c0.7-0.4,1.5-0.6,2.5-0.7c1,0,2-0.1,3-0.1c1.1,0,2.1,0,3-0.1c1,0,1.8-0.2,2.5-0.5c0.6,0.7,1.4,1.1,2.6,1.2
		s2.4,0.7,3.6,1.5c0.4,0.1,0.4-0.1,0-0.5c-0.4-0.4-0.3-0.7,0.1-0.9c1.3,0,2.4,0.3,3.3,0.9c1,0.6,1.9,1.2,2.7,2
		c0.8,0.7,1.6,1.4,2.3,2s1.5,0.9,2.4,0.9c0.9,1.1,1.9,2,3.1,3c1.2,0.9,2.4,1.9,3.5,2.8c1.1,1,2,2,2.7,3.2s1.1,2.5,1.1,3.9
		c-0.1,0.6,0.1,0.9,0.6,1c0.5,0.1,0.8,0.4,1,0.9c0.1,3.6-0.5,6.6-1.7,9.3c-1.2,2.6-2.7,5-4.6,7.2c-1.8,2.2-3.8,4.2-5.9,6.1
		c-2.1,1.9-4,4-5.7,6.2c1.2,1.4,2.5,2.8,4,4c1.5,1.2,3,2.4,4.6,3.5c1.5,1.2,3,2.4,4.4,3.7c1.4,1.3,2.6,2.8,3.5,4.4
		c0.3,0.6,0.9,1,1.9,1.2c0.3,1.2,0.7,2.3,1.2,3.5c0.5,1.2,1,2.4,1.5,3.5c0.5,1.1,0.8,2.1,0.9,3c0.1,0.9-0.1,1.6-0.7,2.2
		c0.7,0.4,1.1,1,1.2,1.8c0.1,0.8,0.1,1.5,0,2c-2.1,2.6-3.6,4.4-4.3,5.5c-0.8,1.1-1.4,1.8-1.7,2.3c-0.4,0.5-0.8,0.9-1.2,1.3
		c-0.4,0.4-1.3,1.2-2.6,2.3c-5.1,3.1-10.4,5.9-16,8.3c-5.5,2.5-11.3,4.1-17.3,5c-0.5,0.7-1.2,1.2-2.1,1.7c-0.9,0.4-2,0.8-3.1,1.1
		s-2.4,0.5-3.7,0.7c-1.3,0.2-2.5,0.4-3.5,0.6c-0.5-0.2-0.7-0.5-0.8-0.9c0-0.4-0.3-0.7-0.8-0.9c-0.1,1.2-0.6,1.8-1.5,1.8
		c-0.9,0-2-0.2-3.4-0.7c-1.4-0.5-2.7-1.2-4.2-2s-2.7-1.7-3.8-2.5c-0.5,0.9-1.1,1.8-1.8,2.7s-1.5,1.6-2.2,2c-1.4-0.2-2.3-0.3-3-0.4
		c-0.6-0.1-1.2,0.1-1.8,0.7c-0.8-0.4-1.4-0.8-1.7-1.2c-0.4-0.4-0.8-0.9-1.2-1.3c-0.4-0.4-0.8-0.8-1.3-1.2c-0.5-0.3-1.2-0.7-2.2-0.9
		c0.2-0.5,0-1.2-0.4-2.2c-0.5-1-1.2-1.6-2-1.8c0.5-0.8,0.3-1.8-0.6-3c-0.9-1.2-1.5-2.6-2-4.1c0.1-0.7,0.2-1.4,0.2-2.1
		c0-0.7,0.1-1.4,0.3-2c0.1-0.6,0.4-1.2,0.7-1.7c0.3-0.5,0.8-0.8,1.4-1c-0.1-1.3-0.5-2.5-1.2-3.6c0.9-0.7,1.4-1.5,1.7-2.5
		s0.6-2,0.8-3.1c0.2-1.1,0.6-2.1,0.9-3.1c0.4-1,1-1.9,1.9-2.5c-0.2-0.3-0.4-0.5-0.6-0.7c-0.2-0.2-0.3-0.5-0.3-1
		c1.4-2.4,2.5-4.5,3-6.1c0.6-1.7,1-3.3,1.4-4.9c0.3-1.6,0.7-3.3,1.1-5.1c0.4-1.8,1.2-4.1,2.3-6.9c-0.1-1.7,0.1-3.3,0.6-4.6
		c0.5-1.3,1-2.7,1.5-4c0.5-1.3,0.9-2.7,1.2-4.1s0.2-3.1-0.1-5.1c-1.6,0.2-2.8,0.8-3.5,1.7c-0.7,1-1.2,2.3-1.4,3.9
		c-0.9,0.8-2,1.1-3.3,1.1C429.6,285.8,428.4,286,427.3,286.3z M480.8,269c-6-0.2-11.9,0.3-17.6,1.6c-5.8,1.3-10.6,3.1-14.6,5.5
		c1.9,1.6,3.9,3.1,6,4.3c2.1,1.3,3.6,2.9,4.7,5.1c4.6-1.8,8.7-4.2,12.1-7C474.9,275.6,478,272.5,480.8,269z M490.9,314.2
		c-3.7-2-7-3.2-10-3.6c-3-0.4-5.9-0.4-8.7,0.1s-5.4,1-7.9,1.8c-2.5,0.8-5,1.4-7.5,1.7c-1.3,3.3-2.6,6.9-3.9,10.8
		c-1.4,4-2.7,7.8-3.9,11.6c3.5-0.5,6.6-1.2,9.5-2.2c2.9-1,5.7-2,8.4-3.3c2.7-1.2,5.3-2.4,7.9-3.6c2.6-1.2,5.3-2.3,8.1-3.4
		c0.3-1.2,0.9-2.1,1.9-2.7c1-0.7,1.9-1.3,2.9-2c1-0.6,1.8-1.3,2.5-2.1C490.9,316.6,491.1,315.6,490.9,314.2z"/>
	<path d="M540.2,341.1c-1.1,3.9-2,6.8-2.8,8.7c-0.8,2-2,4-3.7,6.1c-1.3-0.2-2.1,0-2.6,0.4c-0.5,0.5-1,0.9-1.6,1.3
		c-0.9,0.2-1.5,0.2-1.9,0c-0.4-0.2-0.7-0.4-1-0.7c-0.3-0.2-0.7-0.5-1.1-0.7s-1.1-0.4-2-0.4c-0.2-0.8-0.4-1.5-0.7-2.2
		c-0.2-0.7-0.9-0.9-2-0.7c0.2-0.8,0.2-1.4,0.1-2c-0.1-0.5-0.2-1-0.4-1.4s-0.3-0.9-0.4-1.3c-0.1-0.4,0-1,0.1-1.7
		c-0.5,0-0.9-0.3-1.2-1c-0.3-0.7-0.6-1.3-1-2c0.3-1.7,0.6-3.4,0.9-4.9c0.3-1.5,0.7-3,1.1-4.3c0.4-1.3,0.8-2.7,1.1-4
		c0.3-1.3,0.1-2.7-0.4-4.2c0.4,0.3,0.7,0.2,0.9-0.2c0.2-0.4,0.3-1,0.4-1.7c0.1-0.7,0.1-1.4,0.1-2.2s0-1.3-0.1-1.8
		c1-2.5,1.8-5.1,2.4-7.7c0.6-2.6,1.2-5.3,1.7-7.9c0.5-2.6,1.1-5.2,1.7-7.7c0.6-2.5,1.3-4.8,2.3-6.9c1.1-0.2,2.2-0.1,3.5,0.4
		s2.1,1,2.4,1.7c2.5-1.9,4.7-4.3,6.6-7c1.9-2.7,3.9-5.4,5.9-8s4.3-4.9,6.7-6.9s5.6-3.2,9.3-3.6c1.9,1.4,4.1,2.9,6.4,4.4
		c2.4,1.5,4.3,3.4,5.9,5.9c0.8,0.4,1.4,0.8,2,1.2c0.5,0.4,1.2,0.9,2,1.4v1.7c1.2,1.1,2.1,2.3,2.8,3.7c0.7,1.4,1.4,2.9,2,4.5
		s1.2,3.2,1.7,4.8s1.3,3.1,2,4.6c-0.2,0.5-0.3,0.9-0.3,1.2c0,0.3,0.1,0.7,0.2,1.1c0.1,0.4,0.3,0.8,0.4,1.2c0.1,0.4,0.1,0.9,0,1.6
		c-0.3,4.2-1.7,7.7-4.1,10.3s-5.4,4.7-8.9,6.4c-3.5,1.7-7.2,3.1-11.1,4.3c-4,1.2-7.5,2.4-10.7,3.8c0,0.4,0.2,0.6,0.5,0.6
		c0.3,0,0.5,0.2,0.4,0.7c2.3,1.4,4.1,2.6,5.5,3.5c1.3,0.9,2.6,1.6,3.8,2.2c1.2,0.6,2.5,1.1,3.9,1.5c1.4,0.4,3.3,0.9,5.9,1.5
		c2.5,0.6,4.5,1,5.9,1.4c1.4,0.3,2.7,0.6,3.8,0.9c1.2,0.2,2.3,0.4,3.5,0.6c1.2,0.1,2.9,0.3,5.1,0.5c0.9,0.9,1.6,1.9,2.2,3.1
		c0.6,1.2,1,2.4,1.2,3.6c0.2,1.2,0.2,2.4,0.1,3.5c-0.1,1.1-0.4,2-1,2.7c0.1,0.3,0.3,0.4,0.7,0.4c0.3,0,0.7,0,1.1,0.1
		c-0.6,0.4-1.1,0.9-1.4,1.4c-0.4,0.6-0.8,1.2-1.2,1.7c-0.4,0.6-0.8,1.1-1.3,1.5c-0.5,0.4-1.2,0.7-2,0.8c-3,1.2-6.7,1.2-11.3,0.2
		c-4.5-1-10.3-2.9-17.2-5.6c-3.5-1.3-6.3-2.5-8.5-3.5s-4-2-5.6-3s-3-2.1-4.3-3.3S542,342.8,540.2,341.1z M560.9,291.5
		c-1.1,1.5-2.2,2.9-3.5,4.2c-1.3,1.3-2.6,2.5-3.8,3.8c-1.2,1.3-2.3,2.7-3.3,4.3c-1,1.6-1.6,3.4-2,5.6c3.4-0.4,6.9-1.3,10.6-2.8
		c3.7-1.5,7.1-2.9,10.4-4.3c-0.4-3-1.4-5.4-3.1-7.2C564.5,293.3,562.7,292.1,560.9,291.5z"/>
	<path d="M673.5,344c-0.6,1.6-1.4,3.3-2.5,5c-1.1,1.7-2.4,3.2-3.9,4.5c-1.5,1.3-3.2,2.4-5,3.3c-1.8,0.9-3.8,1.3-5.8,1.4
		c-1.3-0.3-2.1-0.6-2.5-0.9c-0.4-0.3-0.9-0.7-1.4-0.9c-0.3-0.2-0.6-0.4-0.8-0.5c-0.2-0.1-0.5-0.3-0.7-0.4l-1.7-0.7l0.6-1.9
		c0.2-0.8,0.1-1.4-0.1-1.8s-0.9-1-1.7-1.8c-0.3-0.3-0.6-0.6-0.9-0.9s-0.5-0.6-0.7-0.9l-2.5-2.7l3.9-1c2.4-0.7,4-1.5,4.8-2.6
		c0.8-1.1,1.1-2.8,0.9-5.3c-1.9-0.4-3.5-0.4-4.8-0.1s-2.6,0.6-4,1c-1.7,0.5-3.5,0.9-5.3,1.2c-1.8,0.3-3.7,0.5-5.9,0.5
		c-0.8,0-1.5,0-2.2-0.1c-0.7,0-1.4-0.1-2.2-0.2l-1.4-0.3c-0.2-1.1-0.4-1.7-0.6-1.8c-0.2-0.1-0.4-0.3-0.6-0.5c-0.5-0.5-1-1.1-1.5-2
		c-0.5-0.8-0.7-1.9-0.4-3.1c-0.5-0.9-0.8-1.7-0.9-2.6c-0.6,1.2-1,2.4-1.3,3.6l-0.6,1.4l-1.4,0.3c-0.2,0.1-0.3,0.3-0.4,0.7
		c-0.1,0.3-0.1,0.6-0.1,0.8l-0.7,2.5c-0.2,0.2-0.4,0.4-0.6,0.5c-0.2,0.1-0.4,0.3-0.6,0.5c-0.2,0.9-0.4,1.7-0.7,2.6s-0.6,1.7-0.9,2.5
		c-0.5,1.3-0.9,2.5-1.2,3.7c-0.3,1.2-0.5,2.4-0.4,3.5l-0.6,1.6c-0.5,0.6-1,1-1.6,1.4c-0.6,0.3-1.2,0.7-1.7,0.9
		c-0.2,0.2-0.5,0.4-0.8,0.5c-0.3,0.1-0.6,0.3-0.8,0.4l-0.4,1.6l-1.7,0.3c-1.1,0.2-1.8,0.3-2.2,0.4c-0.4,0.1-0.9,0.1-1.5,0.1
		l-1.4-0.1c-1.1-0.9-1.9-1.6-2.5-2.1c-0.6-0.5-1.3-1-2-1.5c-0.9-1.2-1.3-2-1.4-2.6c-0.1-0.6-0.2-1.1-0.3-1.6
		c-0.2-0.6-0.3-1.1-0.4-1.4c0-0.4-0.2-0.7-0.4-0.9l-1.9-1.7l1.6-1.3l0.1-2.5c1.9-4.9,4-9.6,6.1-14.2c2.2-4.5,4.4-9.2,6.7-13.9
		c0.8-1.5,1.5-3.1,2.2-4.6c0.7-1.5,1.5-3.1,2.2-4.6c-0.1-0.3-0.1-0.6-0.1-1c0-0.4,0.1-0.8,0.3-1.3c1.1-1.6,1.9-3.1,2.6-4.4
		c0.7-1.3,1.3-2.6,2-4c0.8-1.6,1.6-3.2,2.4-4.8c0.8-1.5,1.9-3.1,3.1-4.8l2.3-1c0.3-0.1,0.6-0.2,1-0.4c0.4-0.1,0.8-0.2,1.3-0.2
		l2.2,0.3c2.7-1.3,5.1-3,7.1-5.3c2-2.3,4.1-5,6.2-8.2l1.4-2l1.9,1.2c0.5,0.3,1.2,0.6,2,0.8c0.9,0.2,1.8,0.5,2.7,0.8
		c1.7,0.4,3.4,0.8,4.9,1.3c1.5,0.5,2.8,1.2,3.8,2.2c0.6,1.5,0.9,2.7,1,3.5c0.1,0.8,0.2,1.5,0.4,2.3c0.3,1.6,0.6,3.3,0.8,4.9
		c0.2,1.6,0.4,3.5,0.5,5.5c0.5,1.6,0.9,3.3,1.2,4.8c0.3,1.6,0.7,3.2,0.9,4.8c0.5,2.3,1,4.6,1.4,6.7c0.5,2.2,1.1,4.2,1.9,6.1
		c0.8,0,1.3,0,1.4,0.1c0.5-0.2,1-0.3,1.5-0.4c0.5-0.1,1.1-0.2,1.8-0.3l1.6-0.1l0.6,1.4c0.1,0.5,0.6,1,1.4,1.4
		c1.3,0.1,2.2,0.4,2.7,0.8s1.1,0.9,1.6,1.4c0.4,0.4,0.8,0.7,1.2,0.9l2.2,0.9l-1.2,2.2c-1,1.7-2.3,3.4-4.1,5c-1.8,1.6-3.8,2.9-6,4
		c0.1,0.6,0.2,1.1,0.2,1.7c0,0.5,0.2,1.1,0.4,1.7c0.3,1.6,0.5,3.3,0.7,5.1c0.2,1.7,0.2,3.5,0,5.3L673.5,344z M631.7,319
		c2.9-0.2,5.5-0.4,7.9-0.7c2.4-0.2,5-0.7,7.9-1.2c-0.7-2.9-1.4-5.9-2.2-9c-0.8-3.1-1.6-6.2-2.5-9.3l-0.9,1.4c-1.9,2-3.8,4.3-5.6,6.8
		c-1.8,2.5-3.3,4.9-4.6,7.1c-0.6,0.9-1.2,1.7-1.7,2.6s-1.1,1.7-1.6,2.6c0.6-0.1,1.1-0.1,1.7-0.1C630.7,319.1,631.2,319.1,631.7,319z
		"/>
	<path d="M712.6,329.8c-0.9,0.2-1.5,0.7-1.9,1.5c-0.4,0.8-0.7,1.7-1.1,2.5c-0.3,0.9-0.7,1.7-1,2.4c-0.3,0.7-0.8,1.1-1.5,1.1
		c-0.1,0.8-0.4,1.4-0.8,2s-0.8,1.2-1.2,1.8c-0.4,0.6-0.7,1.3-0.9,2c-0.2,0.7-0.1,1.6,0.3,2.5c-0.8,0.6-1.3,1.4-1.4,2.5
		c-0.2,1.1-0.4,2.1-0.7,3c-0.2,1-0.7,1.8-1.2,2.5c-0.6,0.7-1.6,1-3.2,0.9c-0.3,0.4-0.3,0.6-0.1,0.7c0.2,0.1,0.3,0.4,0.4,1
		c-1.1-0.2-1.9-0.1-2.4,0.2c-0.5,0.3-1.2,0.6-2,0.7c-1.8-0.6-3.3-1.6-4.6-3c-1.2-1.4-2.3-3.1-3.2-4.8c-0.9-1.8-1.7-3.6-2.5-5.4
		c-0.7-1.8-1.4-3.4-2.1-4.8c0.3-1.1,0.3-2.1,0.1-3.1c-0.2-1-0.5-1.9-1-2.5c4.7-10,9.9-20.7,15.5-32.1c5.6-11.4,10.9-22.6,15.9-33.7
		c2.2,0.9,4.4,1.9,6.6,3c2.2,1.1,4.1,2.4,5.9,3.8c1.8,1.4,3.3,3.1,4.6,5c1.3,1.9,2.1,4,2.5,6.3c-0.2,0.6-0.4,0.8-0.7,0.7
		c-0.2-0.1-0.5-0.1-0.7,0.2c0.4,0.5,0.6,0.8,0.7,1c0,0.2,0,0.4,0,0.6c0,0.2-0.1,0.5-0.1,0.8c0,0.3,0.1,0.8,0.4,1.4
		c-0.4-0.1-0.7,0-0.8,0.1c-0.1,0.2-0.5,0.2-0.9,0c0.4,1.1,0.5,1.9,0.4,2.6c-0.1,0.7-0.4,1.3-0.7,1.8c-0.3,0.5-0.5,1.1-0.7,1.7
		c-0.2,0.6-0.1,1.4,0.1,2.4c-0.3,0-0.5,0.1-0.7,0.2s-0.3,0.3-0.4,0.4c-0.1,0.1-0.2,0.3-0.4,0.4s-0.4,0.2-0.7,0.1
		c0.3,2.1,0.4,4.2,0.3,6.4c-0.1,2.1-0.2,4.3-0.2,6.4c0,2.2,0,4.4,0.1,6.8c0.1,2.4,0.4,4.8,1,7.3c3.5-2,6.2-4.6,8.3-7.8
		c2.1-3.2,3.8-6.7,5.1-10.7c1.3-4,2.3-8.2,3-12.7c0.7-4.5,1.4-9.2,2.2-13.9c0.9-0.9,1.5-1.9,2-3.2c0.5-1.3,0.9-2.6,1.3-4
		c0.4-1.4,0.8-2.8,1.2-4.2c0.4-1.4,0.9-2.7,1.4-3.8c1.4,0.2,2.7,0.7,3.7,1.4s2,1.5,2.8,2.3c0.9,0.8,1.8,1.6,2.7,2.3
		c1,0.7,2.2,1.2,3.6,1.4c1.2,1.6,2.2,3.2,3.2,4.8c1,1.5,1.6,3.2,1.9,4.9c-0.5,0.8-0.8,1.6-1.1,2.6c-0.2,1-0.5,1.9-0.8,2.9
		c-0.3,1-0.7,1.9-1.2,2.7c-0.5,0.8-1.2,1.5-2,2.1c-0.3,2.5-0.7,4.8-1.1,6.9c-0.4,2.1-0.9,4.1-1.3,6.1s-0.8,4.1-1.1,6.3
		s-0.4,4.6-0.3,7.2c-0.8,2.2-1.6,4.6-2.5,7.1c-0.9,2.5-1.5,4.8-2,6.8c-1.5,1.3-2.7,2.7-3.6,4.5s-1.8,3.5-2.7,5.2
		c-0.4,0.4-0.6,0.5-0.7,0.3c-0.1-0.2-0.4-0.3-1-0.4c0.1,0.4,0.1,0.7,0,0.9c-0.1,0.2-0.2,0.4-0.4,0.5s-0.2,0.4-0.3,0.7
		c0,0.3,0,0.7,0.2,1.2c-1.4,0.6-2.6,1.4-3.6,2.5c-1.1,1.1-2.2,2-3.4,2.9c-1.2,0.9-2.7,1.4-4.3,1.7c-1.7,0.3-3.9,0-6.6-1
		c-4-2.9-7.4-6.2-10.5-10S714.6,335,712.6,329.8z"/>
	<path d="M837.8,317.1c-0.1,0.5-0.2,0.9-0.3,1.2c-0.1,0.3-0.2,0.7-0.3,0.9c-0.1,0.3-0.1,0.7-0.1,1.1s0,1,0,1.7
		c-2.9,5.1-6.5,9.4-10.9,12.9c-4.4,3.5-9.2,6.5-14.5,9.2c-5.3,2.7-10.7,5.1-16.4,7.2c-5.7,2.2-11.2,4.5-16.6,7
		c-2.3-0.6-4.1-1.5-5.3-2.9c-1.2-1.3-2.1-2.9-2.7-4.7c-0.6-1.8-1.1-3.8-1.3-5.9c-0.2-2.2-0.5-4.4-0.7-6.7c0.3-1.1,0.7-2,1.2-2.7
		c0.5-0.7,0.8-1.8,0.8-3.1c0.8-2.5,1.5-5,2.3-7.4c0.8-2.4,1.3-4.9,1.4-7.4c0.3-0.8,0.8-1.3,1.6-1.6c0.5-4.6,0.5-9.3,0.1-14.1
		s-1.2-9.2-2.4-13.4c0.1-1,0.2-1.7,0.4-2.1s0.1-0.7-0.1-0.9c-0.1-0.8,0.2-1.2,0.8-1.2c0.6,0,1.3,0,2,0c0-1.4-0.3-2.9-0.8-4.3
		c-0.5-1.4-1-3.1-1.5-4.9c0.7-1.4,1.1-2.9,1.3-4.3c0.2-1.4,0.6-2.6,1.3-3.7c5.2,1.6,10.2,3.6,15,5.9s9.5,4,14.1,5.1
		c3.5,2.5,7,5,10.7,7.4c3.7,2.5,7,5.2,10,8.1c3,2.9,5.5,6.3,7.5,10S837.5,311.9,837.8,317.1z M803.5,325.1c2-0.8,4-1.6,6-2.5
		c2-0.9,3.8-1.9,5.5-3c1.7-1.1,3.2-2.4,4.6-3.8c1.3-1.4,2.5-3.2,3.3-5.2c-0.6-1.2-1.4-2.2-2.3-3.1c-1-0.9-1.9-1.8-2.9-2.6
		c-1-0.8-1.9-1.7-2.8-2.5c-0.9-0.9-1.7-1.9-2.2-3.2c-1.3-0.2-2.4-0.6-3.3-1.1c-1-0.5-1.9-1.1-2.8-1.6c-0.9-0.5-1.9-1-2.9-1.5
		c-1-0.5-2.2-0.8-3.5-0.9c-2.1-1.1-4-1.8-5.7-2.3c-1.7-0.5-3-1.1-3.8-1.9c-0.7,0-1.2,0.1-1.6,0.4c1,3.7,1.7,7.1,2.2,10.3
		c0.5,3.2,0.7,6.5,0.8,9.7c0,3.2-0.1,6.5-0.5,9.9c-0.4,3.4-0.9,7-1.6,11c1-0.1,1.9-0.3,2.7-0.7c0.8-0.3,1.6-0.7,2.5-1.1
		c0.8-0.4,1.7-0.7,2.6-1.1c0.9-0.3,2-0.6,3.3-0.7c0.3-0.6,0.7-1.1,1.2-1.4C802.6,326,803.1,325.6,803.5,325.1z"/>
	<path d="M841,291.1c0.7-2,1.8-3.8,3.3-5.2c1.5-1.4,3.1-2.7,4.9-3.7c1.8-1,3.6-1.9,5.6-2.5c1.9-0.7,3.8-1.3,5.5-1.7
		c3.9-1.6,8-3.2,12.4-4.7c4.4-1.5,8.9-2.8,13.4-4c4.6-1.2,9.3-1.9,14.1-2.2c4.8-0.3,9.9,0.3,15.2,1.8c0.3,1,0.7,1.9,1.3,2.7
		s1.2,1.7,1.8,2.6c0.6,0.9,1.2,1.7,1.7,2.5c0.5,0.8,0.8,1.7,0.9,2.5c1,0.9,1.7,1.8,2.3,2.8s0.7,2.3,0.3,4c-1,0.8-1.9,1.5-2.8,2.1
		c-0.9,0.6-1.9,1.2-3,1.7c-3.6-0.9-7.2-1.2-10.8-0.9c-3.7,0.3-6.9,0.5-9.8,0.7c-0.9-0.9-1.9-1.3-3.1-1.3c-1.2,0-2.5,0.2-3.8,0.6
		c-1.3,0.4-2.6,0.8-3.9,1.2c-1.3,0.4-2.5,0.5-3.7,0.3c-1,0.8-2.1,1.3-3.5,1.5c-1.4,0.2-2.9,0.5-4.6,0.7c-0.1,0.5,0,0.8,0.3,0.9
		s0.3,0.5,0.1,0.9c0.6,0.7,1.3,1.2,2.2,1.4c0.9,0.3,1.9,0.6,2.9,0.9s1.9,0.7,2.7,1.1c0.8,0.4,1.3,1.1,1.6,2.1c1.4,0,2.7,0.3,3.8,1
		c1.1,0.7,1.9,1.5,2.6,2.5c0.7,1,1.2,2,1.5,3.1c0.3,1.1,0.5,2.1,0.5,3c0.3,0.8,0.6,1.1,1,1c0.4-0.1,0.8,0.1,1.3,0.6
		c0.3,1.3,1,2.5,2.2,3.8s2.1,2.7,2.7,4.3c0.2,2.4,0.3,4.6,0.4,6.4c0.1,1.9-0.2,3.8-1,5.7c-1.4,3.6-3.4,6.7-6,9.5
		c-2.6,2.8-5.4,5.3-8.7,7.4c-3.2,2.2-6.7,4-10.3,5.6c-3.7,1.5-7.2,2.8-10.7,3.9c-0.4-0.1-0.8-0.1-1.2,0c-0.4,0.1-0.5-0.1-0.3-0.7
		c-0.8,0.7-1.6,1.1-2.5,1.3c-0.9,0.2-1.9,0.3-3,0.2c-1.1,0-2.1-0.1-3.3-0.2c-1.1-0.1-2.1,0-3.1,0.1c-0.7-0.7-1.3-1.3-1.8-2
		c-0.5-0.6-0.9-1.4-1.2-2.4c-0.5,0-0.7-0.2-0.7-0.7c0-0.5-0.1-0.7-0.5-0.7c0.6-1,0.8-1.5,0.8-1.7c0-0.1-0.2-0.3-0.4-0.4
		c-0.2-0.1-0.5-0.2-0.7-0.4c-0.2-0.1-0.2-0.4-0.1-0.7c0.4-0.8,0.5-1.7,0.4-2.7c-0.1-1-0.2-2-0.3-3.1c-0.1-1.1,0-2.1,0.2-3
		c0.2-1,0.9-1.7,2.1-2.3c3.3,0.4,6.4,0.3,9.3-0.4c2.9-0.6,5.7-1.5,8.3-2.7s5.1-2.4,7.4-3.8c2.4-1.3,4.7-2.6,7-3.6
		c0.3-0.9,0.7-1.6,1.2-2.2c0.5-0.6,1.1-1.1,1.7-1.6c0.6-0.5,1.1-1,1.6-1.6c0.5-0.6,0.8-1.3,1-2.2c0.1-0.7-0.1-1.1-0.5-1.2
		s-0.7-0.5-0.7-1.1l-1.6-0.4c-1.8-1.1-3.9-2-6.2-2.7s-4.3-1.5-5.9-2.4c-1.1,0.6-2,0.7-3,0.4c-0.9-0.3-2.1-0.6-3.5-0.9
		c-3.3-0.2-6.4-0.5-9.5-1c-3-0.5-6-1.3-8.7-2.6c-0.2-0.5-0.4-0.9-0.7-1.3c-0.3-0.4-0.8-0.5-1.6-0.3c-0.6-0.8-1.2-1.5-1.7-2.2
		s-1.1-1.5-1.6-2.4c0.2-1.2,0.3-2.1,0.4-3c0.1-0.8-0.2-1.6-0.9-2.4c0.4-1.3,0.7-2.3,0.9-3C841.2,293.4,841.2,292.4,841,291.1z"/>
</g>
</svg>
